{
.appVersion = "3151";
.formatVersion = 3;
DisplayStrings = (
"
流닌流닌流멇룹봻룹봻룹봻룹멇룹멇룹봻룹봻룹봻룹멇룹봻룹
流닌流닌流流닌流닌流닌流流流닌流닌流닌流流닌流닌
流닌流닌流니流닌流닌流닌流니流니流닌流닌流닌流니流닌流닌
流닌流닌流닋流닌流닌流닋流닋流닌流닌流닌流닋流닌流닌
流닌流닌流늿流닌流닌流닌流늿流늿流닌流닌流닌流늿流닌流닌
流닌流닌流닀流닌流닌流닌流닀流닀流닌流닌流닌流닀流닌流닌
",
"流닒流늻流늽流늾流멇룹流니流닋",
"流닒流늻流늽流늾流流멇룹뫯룹",
"流닋"
);
axes = (
{
name = Weight;
tag = wght;
}
);
date = "2022-04-03 17:04:08 +0000";
familyName = "Noto Sans Nag Mundari";
featurePrefixes = (
{
code = "languagesystem DFLT dflt;
languagesystem nagm NAG;";
name = Languagesystems;
}
);
features = (
{
automatic = 1;
code = "feature ss01;
";
tag = aalt;
},
{
automatic = 1;
code = "sub op-nagmundari by op-nagmundari.ss01;
";
disabled = 1;
labels = (
{
language = dflt;
value = "Alternate op form";
}
);
tag = ss01;
}
);
fontMaster = (
{
axesValues = (
400
);
customParameters = (
{
name = "Master Icon Glyph Name";
value = "em-nagmundari";
}
);
id = m01;
metricValues = (
{
over = 16;
pos = 1069;
},
{
over = 16;
pos = 714;
},
{
over = 16;
pos = 536;
},
{
over = -16;
},
{
over = -16;
pos = -293;
},
{
over = -16;
}
);
name = Regular;
userData = {
GSOffsetHorizontal = 10;
GSOffsetVertical = 10;
};
},
{
axesValues = (
700
);
customParameters = (
{
name = "Master Icon Glyph Name";
value = "em-nagmundari";
}
);
id = m002;
metricValues = (
{
over = 16;
pos = 1069;
},
{
over = 16;
pos = 714;
},
{
over = 16;
pos = 536;
},
{
over = -16;
},
{
over = -16;
pos = -293;
},
{
over = -16;
}
);
name = Bold;
userData = {
GSOffsetHorizontal = 18;
GSOffsetVertical = 18;
};
}
);
glyphs = (
{
color = 4;
glyphname = "ojod-nagmundari";
lastChange = "2023-02-18 05:04:20 +0000";
layers = (
{
anchors = (
{
name = bottom;
pos = (341,0);
}
);
guides = (
{
angle = 90;
pos = (559,639);
},
{
angle = 90;
pos = (246,639);
},
{
pos = (502,145);
}
);
layerId = m01;
shapes = (
{
closed = 1;
nodes = (
(232,56,o),
(170,100,o),
(170,182,cs),
(170,252,o),
(213,291,o),
(353,407,cs),
(420,462,o),
(444,510,o),
(444,563,cs),
(444,660,o),
(364,730,o),
(268,730,cs),
(169,730,o),
(90,655,o),
(90,557,cs),
(90,459,o),
(172,386,o),
(270,386,cs),
(559,386,l),
(559,456,l),
(287,456,ls),
(213,456,o),
(170,503,o),
(170,557,cs),
(170,611,o),
(213,658,o),
(268,658,cs),
(321,658,o),
(364,615,o),
(364,566,cs),
(364,530,o),
(340,487,o),
(303,459,cs),
(125,324,o),
(90,243,o),
(90,175,cs),
(90,65,o),
(181,-16,o),
(329,-16,cs),
(437,-16,o),
(533,33,o),
(590,91,c),
(538,145,l),
(484,85,o),
(400,56,o),
(329,56,cs)
);
}
);
width = 640;
},
{
anchors = (
{
name = bottom;
pos = (338,0);
}
);
guides = (
{
pos = (588,181);
}
);
layerId = m002;
shapes = (
{
closed = 1;
nodes = (
(163,-16,o),
(60,65,o),
(60,173,cs),
(60,243,o),
(102,324,o),
(280,459,cs),
(317,487,o),
(341,526,o),
(341,558,cs),
(341,596,o),
(308,620,o),
(267,620,cs),
(220,620,o),
(194,589,o),
(194,551,cs),
(194,522,o),
(209,476,o),
(301,476,cs),
(575,476,l),
(575,366,l),
(287,366,ls),
(164,366,o),
(60,434,o),
(60,541,cs),
(60,660,o),
(158,730,o),
(275,730,cs),
(388,730,o),
(471,660,o),
(471,562,cs),
(471,507,o),
(447,464,o),
(380,407,cs),
(250,297,o),
(194,247,o),
(194,188,cs),
(194,124,o),
(261,94,o),
(331,94,cs),
(411,94,o),
(483,127,o),
(546,181,c),
(615,93,l),
(548,38,o),
(467,-16,o),
(331,-16,cs)
);
}
);
width = 655;
}
);
unicode = 124139;
},
{
color = 4;
glyphname = "o-nagmundari";
lastChange = "2023-02-18 05:05:50 +0000";
layers = (
{
anchors = (
{
name = bottom;
pos = (311,0);
},
{
name = top;
pos = (324,714);
}
);
guides = (
{
pos = (405,838);
},
{
pos = (400,1015);
},
{
angle = 90;
pos = (123,175);
},
{
angle = 90;
pos = (556,175);
}
);
layerId = m01;
shapes = (
{
closed = 1;
nodes = (
(456,-16,o),
(574,71,o),
(574,188,cs),
(574,308,o),
(447,370,o),
(347,384,c),
(347,347,l),
(439,369,o),
(548,429,o),
(548,534,cs),
(548,644,o),
(451,730,o),
(314,730,cs),
(254,730,o),
(174,714,o),
(91,675,c),
(119,610,l),
(210,655,o),
(281,658,o),
(310,658,cs),
(409,658,o),
(468,600,o),
(468,531,cs),
(468,468,o),
(399,401,o),
(280,401,cs),
(222,401,l),
(222,329,l),
(304,329,ls),
(390,329,o),
(494,276,o),
(494,185,cs),
(494,121,o),
(431,56,o),
(306,56,cs),
(235,56,o),
(146,85,o),
(92,145,c),
(40,91,l),
(97,33,o),
(198,-16,o),
(306,-16,cs)
);
}
);
width = 634;
},
{
anchors = (
{
name = bottom;
pos = (319,0);
},
{
name = top;
pos = (332,714);
}
);
layerId = m002;
shapes = (
{
closed = 1;
nodes = (
(498,-16,o),
(613,72,o),
(613,189,cs),
(613,298,o),
(507,374,o),
(365,384,c),
(365,347,l),
(482,372,o),
(583,423,o),
(583,539,cs),
(583,668,o),
(457,730,o),
(331,730,cs),
(256,730,o),
(165,708,o),
(95,669,c),
(137,572,l),
(220,614,o),
(285,620,o),
(317,620,cs),
(390,620,o),
(449,587,o),
(449,525,cs),
(449,462,o),
(387,420,o),
(289,420,cs),
(221,420,l),
(221,311,l),
(322,311,ls),
(408,311,o),
(479,267,o),
(479,201,cs),
(479,134,o),
(412,94,o),
(324,94,cs),
(256,94,o),
(174,123,o),
(113,175,c),
(40,87,l),
(103,35,o),
(200,-16,o),
(324,-16,cs)
);
}
);
width = 663;
}
);
unicode = 124112;
},
{
color = 4;
glyphname = "op-nagmundari";
lastChange = "2023-02-18 05:05:03 +0000";
layers = (
{
anchors = (
{
name = bottom;
pos = (366,0);
},
{
name = top;
pos = (402,714);
}
);
layerId = m01;
shapes = (
{
closed = 1;
nodes = (
(296,60,l),
(296,254,l),
(216,254,l),
(216,132,l),
(178,132,l),
(109,279,l),
(570,279,l),
(570,351,l),
(30,351,l),
(30,280,l),
(142,60,l)
);
},
{
closed = 1;
nodes = (
(634,0,l),
(634,714,l),
(554,714,l),
(554,0,l)
);
},
{
closed = 1;
nodes = (
(296,207,l),
(296,714,l),
(216,714,l),
(216,207,l)
);
}
);
width = 754;
},
{
anchors = (
{
name = bottom;
pos = (386,0);
},
{
name = top;
pos = (389,714);
}
);
layerId = m002;
shapes = (
{
closed = 1;
nodes = (
(370,60,l),
(370,254,l),
(236,254,l),
(236,147,l),
(206,147,l),
(150,267,l),
(590,267,l),
(590,372,l),
(40,372,l),
(40,280,l),
(162,60,l)
);
},
{
closed = 1;
nodes = (
(681,0,l),
(681,714,l),
(547,714,l),
(547,0,l)
);
},
{
closed = 1;
nodes = (
(370,207,l),
(370,714,l),
(236,714,l),
(236,207,l)
);
}
);
width = 759;
}
);
unicode = 124113;
},
{
color = 4;
glyphname = "ol-nagmundari";
lastChange = "2023-02-17 18:24:49 +0000";
layers = (
{
anchors = (
{
name = bottom;
pos = (379,0);
},
{
name = top;
pos = (376,714);
}
);
layerId = m01;
shapes = (
{
closed = 1;
nodes = (
(535,658,o),
(564,538,o),
(564,460,cs),
(564,0,l),
(644,0,l),
(644,467,ls),
(644,558,o),
(597,730,o),
(376,730,cs),
(155,730,o),
(108,558,o),
(108,467,cs),
(108,0,l),
(188,0,l),
(188,460,ls),
(188,538,o),
(217,658,o),
(376,658,cs)
);
}
);
width = 752;
},
{
anchors = (
{
name = bottom;
pos = (368,0);
},
{
name = top;
pos = (365,714);
}
);
layerId = m002;
shapes = (
{
closed = 1;
nodes = (
(504,620,o),
(526,508,o),
(526,420,cs),
(526,0,l),
(660,0,l),
(660,447,ls),
(660,568,o),
(586,730,o),
(365,730,cs),
(144,730,o),
(70,568,o),
(70,447,cs),
(70,0,l),
(204,0,l),
(204,420,ls),
(204,508,o),
(226,620,o),
(365,620,cs)
);
}
);
width = 730;
}
);
unicode = 124114;
},
{
color = 4;
glyphname = "oy-nagmundari";
lastChange = "2023-02-18 05:06:11 +0000";
layers = (
{
anchors = (
{
name = bottom;
pos = (331,0);
},
{
name = top;
pos = (369,714);
}
);
layerId = m01;
shapes = (
{
closed = 1;
nodes = (
(499,-16,o),
(611,51,o),
(672,118,c),
(622,169,l),
(551,95,o),
(460,56,o),
(352,56,cs),
(225,56,o),
(157,110,o),
(157,172,cs),
(157,237,o),
(230,258,o),
(352,287,cs),
(503,323,o),
(667,368,o),
(667,547,cs),
(667,685,o),
(569,730,o),
(507,730,cs),
(455,730,o),
(385,699,o),
(345,615,c),
(396,615,l),
(351,708,o),
(272,730,o),
(220,730,cs),
(140,730,o),
(70,679,o),
(70,588,cs),
(70,530,o),
(99,471,o),
(128,437,c),
(198,476,l),
(171,512,o),
(150,544,o),
(150,582,cs),
(150,628,o),
(176,658,o),
(225,658,cs),
(277,658,o),
(329,627,o),
(329,536,cs),
(329,496,l),
(409,496,l),
(409,535,ls),
(409,616,o),
(446,658,o),
(502,658,cs),
(563,658,o),
(587,608,o),
(587,548,cs),
(587,408,o),
(457,381,o),
(331,355,cs),
(193,327,o),
(77,288,o),
(77,175,cs),
(77,74,o),
(170,-16,o),
(347,-16,cs)
);
}
);
width = 732;
},
{
anchors = (
{
name = bottom;
pos = (356,0);
},
{
name = top;
pos = (394,714);
}
);
background = {
shapes = (
{
closed = 0;
nodes = (
(471,94,ls),
(539,94,o),
(621,123,o),
(682,175,c),
(755,87,l),
(692,35,o),
(595,-16,o),
(471,-16,cs)
);
}
);
};
guides = (
{
angle = 90;
pos = (719,222);
}
);
layerId = m002;
shapes = (
{
closed = 1;
nodes = (
(536,-16,o),
(649,44,o),
(743,136,c),
(661,221,l),
(595,147,o),
(498,94,o),
(379,94,cs),
(301,94,o),
(209,117,o),
(209,170,cs),
(209,213,o),
(270,230,o),
(381,261,cs),
(536,304,o),
(719,378,o),
(719,546,cs),
(719,671,o),
(618,730,o),
(536,730,cs),
(465,730,o),
(391,686,o),
(370,615,c),
(421,615,l),
(376,708,o),
(299,730,o),
(237,730,cs),
(149,730,o),
(65,686,o),
(65,581,cs),
(65,519,o),
(95,462,o),
(141,422,c),
(240,488,l),
(210,521,o),
(195,540,o),
(195,568,cs),
(195,612,o),
(231,620,o),
(255,620,cs),
(300,620,o),
(327,591,o),
(327,536,cs),
(327,496,l),
(461,496,l),
(461,539,ls),
(461,576,o),
(478,620,o),
(522,620,cs),
(560,620,o),
(585,586,o),
(585,540,cs),
(585,453,o),
(496,428,o),
(360,391,cs),
(227,355,o),
(75,311,o),
(75,175,cs),
(75,39,o),
(226,-16,o),
(378,-16,cs)
);
}
);
width = 785;
}
);
unicode = 124115;
},
{
color = 4;
glyphname = "ong-nagmundari";
lastChange = "2023-02-18 05:07:13 +0000";
layers = (
{
anchors = (
{
name = bottom;
pos = (336,0);
},
{
name = top;
pos = (346,714);
}
);
layerId = m01;
shapes = (
{
closed = 1;
nodes = (
(198,-16,o),
(60,122,o),
(60,353,cs),
(60,591,o),
(212,730,o),
(378,730,cs),
(503,730,o),
(605,647,o),
(605,520,cs),
(605,374,o),
(472,332,o),
(338,332,cs),
(117,332,l),
(117,404,l),
(342,404,ls),
(472,404,o),
(525,440,o),
(525,518,cs),
(525,615,o),
(446,658,o),
(381,658,cs),
(292,658,o),
(140,585,o),
(140,358,cs),
(140,162,o),
(249,56,o),
(374,56,cs),
(448,56,o),
(513,76,o),
(578,145,c),
(630,91,l),
(581,38,o),
(484,-16,o),
(373,-16,cs)
);
}
);
width = 685;
},
{
anchors = (
{
name = bottom;
pos = (363,0);
},
{
name = top;
pos = (373,714);
}
);
guides = (
{
angle = 90;
pos = (659,245);
}
);
layerId = m002;
shapes = (
{
closed = 1;
nodes = (
(212,-16,o),
(60,119,o),
(60,345,cs),
(60,584,o),
(229,730,o),
(410,730,cs),
(543,730,o),
(659,652,o),
(659,515,cs),
(659,377,o),
(543,313,o),
(391,313,cs),
(144,313,l),
(144,423,l),
(379,423,ls),
(421,423,o),
(525,433,o),
(525,523,cs),
(525,584,o),
(476,620,o),
(409,620,cs),
(319,620,o),
(194,555,o),
(194,351,cs),
(194,152,o),
(313,94,o),
(408,94,cs),
(488,94,o),
(560,127,o),
(623,181,c),
(692,93,l),
(625,38,o),
(542,-16,o),
(406,-16,cs)
);
}
);
width = 725;
}
);
unicode = 124116;
},
{
color = 0;
glyphname = "a-nagmundari";
lastChange = "2023-02-17 15:16:27 +0000";
layers = (
{
anchors = (
{
name = bottom;
pos = (266,0);
},
{
name = top;
pos = (369,714);
}
);
layerId = m01;
shapes = (
{
closed = 1;
nodes = (
(401,-16,o),
(523,74,o),
(523,208,cs),
(523,320,o),
(462,423,o),
(349,439,c),
(354,397,l),
(450,414,o),
(487,491,o),
(487,554,cs),
(487,686,o),
(369,730,o),
(273,730,cs),
(213,730,o),
(134,711,o),
(72,676,c),
(98,610,l),
(181,652,o),
(244,658,o),
(273,658,cs),
(345,658,o),
(407,614,o),
(407,551,cs),
(407,510,o),
(376,464,o),
(263,464,cs),
(189,464,l),
(189,392,l),
(263,392,ls),
(416,392,o),
(443,276,o),
(443,208,cs),
(443,114,o),
(367,56,o),
(264,56,cs),
(188,56,o),
(140,101,o),
(140,149,cs),
(140,193,o),
(171,202,o),
(219,202,cs),
(603,202,l),
(603,0,l),
(683,0,l),
(683,272,l),
(217,272,ls),
(135,272,o),
(60,234,o),
(60,149,cs),
(60,63,o),
(135,-16,o),
(264,-16,cs)
);
}
);
width = 713;
},
{
anchors = (
{
name = bottom;
pos = (250,0);
},
{
name = top;
pos = (353,714);
}
);
layerId = m002;
shapes = (
{
closed = 1;
nodes = (
(425,-16,o),
(534,88,o),
(534,216,cs),
(534,331,o),
(446,423,o),
(333,439,c),
(338,397,l),
(439,416,o),
(504,464,o),
(504,549,cs),
(504,664,o),
(384,730,o),
(261,730,cs),
(190,730,o),
(106,708,o),
(36,669,c),
(78,572,l),
(161,614,o),
(220,620,o),
(250,620,cs),
(305,620,o),
(370,599,o),
(370,541,cs),
(370,517,o),
(359,478,o),
(247,478,cs),
(173,478,l),
(173,378,l),
(227,378,ls),
(375,378,o),
(400,283,o),
(400,226,cs),
(400,146,o),
(351,94,o),
(252,94,cs),
(183,94,o),
(154,119,o),
(154,151,cs),
(154,177,o),
(173,182,o),
(203,182,cs),
(562,182,l),
(562,0,l),
(692,0,l),
(692,292,l),
(187,292,ls),
(163,292,o),
(20,291,o),
(20,158,cs),
(20,36,o),
(139,-16,o),
(257,-16,cs)
);
}
);
width = 747;
}
);
unicode = 124117;
},
{
color = 4;
glyphname = "aj-nagmundari";
lastChange = "2023-02-18 04:59:23 +0000";
layers = (
{
anchors = (
{
name = bottom;
pos = (412,0);
},
{
name = top;
pos = (435,714);
}
);
layerId = m01;
shapes = (
{
closed = 1;
nodes = (
(345,714,l),
(345,423,ls),
(345,318,o),
(282,274,o),
(244,274,cs),
(208,274,o),
(146,299,o),
(146,395,cs),
(146,714,l),
(66,714,l),
(66,399,ls),
(66,241,o),
(176,202,o),
(234,202,cs),
(300,202,o),
(374,233,o),
(403,340,c),
(361,340,l),
(377,272,o),
(438,202,o),
(525,202,cs),
(587,202,o),
(652,250,o),
(674,318,c),
(643,330,l),
(643,0,l),
(723,0,l),
(723,714,l),
(643,714,l),
(643,394,l),
(634,333,o),
(579,274,o),
(531,274,cs),
(477,274,o),
(425,322,o),
(425,423,cs),
(425,714,l)
);
}
);
width = 833;
},
{
anchors = (
{
name = bottom;
pos = (376,0);
},
{
name = top;
pos = (399,714);
}
);
layerId = m002;
shapes = (
{
closed = 1;
nodes = (
(329,714,l),
(329,390,ls),
(329,343,o),
(297,294,o),
(253,294,cs),
(207,294,o),
(184,326,o),
(184,395,cs),
(184,714,l),
(50,714,l),
(50,390,ls),
(50,204,o),
(192,184,o),
(243,184,cs),
(314,184,o),
(399,232,o),
(414,322,c),
(362,322,l),
(378,254,o),
(442,184,o),
(529,184,cs),
(601,184,o),
(663,233,o),
(685,326,c),
(627,312,l),
(627,0,l),
(761,0,l),
(761,714,l),
(627,714,l),
(627,390,l),
(623,351,o),
(599,294,o),
(541,294,cs),
(487,294,o),
(463,351,o),
(463,415,cs),
(463,714,l)
);
}
);
width = 841;
}
);
unicode = 124118;
},
{
color = 0;
glyphname = "ab-nagmundari";
lastChange = "2023-02-17 15:16:27 +0000";
layers = (
{
anchors = (
{
name = bottom;
pos = (354,0);
},
{
name = top;
pos = (347,714);
}
);
guides = (
{
angle = 90;
pos = (368,72);
},
{
angle = 90;
pos = (205,72);
}
);
layerId = m01;
shapes = (
{
closed = 1;
nodes = (
(293,320,l),
(208,349,o),
(163,407,o),
(163,480,cs),
(163,589,o),
(265,658,o),
(366,658,cs),
(428,658,o),
(515,632,o),
(573,530,c),
(636,568,l),
(572,681,o),
(471,730,o),
(365,730,cs),
(198,730,o),
(83,607,o),
(83,478,cs),
(83,377,o),
(154,292,o),
(237,263,c)
);
},
{
closed = 1;
nodes = (
(460,-14,o),
(542,71,o),
(542,176,cs),
(542,281,o),
(460,366,o),
(355,366,cs),
(250,366,o),
(168,281,o),
(168,176,cs),
(168,71,o),
(250,-14,o),
(355,-14,cs)
);
},
{
closed = 1;
nodes = (
(294,58,o),
(243,108,o),
(243,176,cs),
(243,243,o),
(294,294,o),
(355,294,cs),
(416,294,o),
(467,244,o),
(467,176,cs),
(467,107,o),
(416,58,o),
(355,58,cs)
);
},
{
closed = 1;
nodes = (
(446,408,l),
(405,457,l),
(54,179,l),
(94,129,l)
);
}
);
width = 690;
},
{
anchors = (
{
name = bottom;
pos = (345,0);
},
{
name = top;
pos = (338,714);
}
);
layerId = m002;
shapes = (
{
closed = 1;
nodes = (
(311,320,l),
(226,349,o),
(181,407,o),
(181,478,cs),
(181,583,o),
(278,620,o),
(353,620,cs),
(399,620,o),
(482,607,o),
(556,492,c),
(648,548,l),
(584,676,o),
(477,730,o),
(355,730,cs),
(171,730,o),
(47,607,o),
(47,476,cs),
(47,377,o),
(118,292,o),
(201,263,c)
);
},
{
closed = 1;
nodes = (
(458,-16,o),
(553,53,o),
(553,173,cs),
(553,298,o),
(451,366,o),
(348,366,cs),
(241,366,o),
(139,293,o),
(139,170,cs),
(139,56,o),
(228,-16,o),
(344,-16,cs)
);
},
{
closed = 1;
nodes = (
(295,83,o),
(264,119,o),
(264,174,cs),
(264,237,o),
(305,264,o),
(349,264,cs),
(387,264,o),
(428,244,o),
(428,177,cs),
(428,119,o),
(398,83,o),
(347,83,cs)
);
},
{
closed = 1;
nodes = (
(447,398,l),
(386,467,l),
(35,189,l),
(95,119,l)
);
}
);
width = 683;
}
);
note = "Sould the loop be enlarged?";
unicode = 124119;
},
{
color = 0;
glyphname = "any-nagmundari";
lastChange = "2023-02-17 15:16:27 +0000";
layers = (
{
anchors = (
{
name = bottom;
pos = (274,0);
},
{
name = top;
pos = (290,714);
}
);
layerId = m01;
shapes = (
{
closed = 1;
nodes = (
(160,730,o),
(48,635,o),
(48,484,cs),
(48,326,o),
(172,249,o),
(281,249,cs),
(324,249,o),
(380,261,o),
(433,313,c),
(401,316,l),
(401,35,l),
(481,-16,l),
(655,107,l),
(617,162,l),
(451,45,l),
(481,45,l),
(481,537,ls),
(481,684,o),
(381,730,o),
(290,730,cs)
);
},
{
closed = 1;
nodes = (
(128,614,o),
(228,658,o),
(286,658,cs),
(324,658,o),
(401,639,o),
(401,537,cs),
(401,362,l),
(380,346,o),
(334,321,o),
(286,321,cs),
(222,321,o),
(128,366,o),
(128,488,cs)
);
}
);
width = 679;
},
{
anchors = (
{
name = bottom;
pos = (284,0);
},
{
name = top;
pos = (300,714);
}
);
layerId = m002;
shapes = (
{
closed = 1;
nodes = (
(158,730,o),
(30,638,o),
(30,474,cs),
(30,298,o),
(171,230,o),
(275,230,cs),
(318,230,o),
(390,242,o),
(443,294,c),
(383,316,l),
(383,35,l),
(517,-16,l),
(690,95,l),
(635,179,l),
(493,90,l),
(517,82,l),
(517,493,ls),
(517,686,o),
(393,730,o),
(288,730,cs)
);
},
{
closed = 1;
nodes = (
(164,587,o),
(228,620,o),
(286,620,cs),
(340,620,o),
(383,582,o),
(383,480,cs),
(383,378,l),
(364,358,o),
(328,340,o),
(286,340,cs),
(238,340,o),
(164,366,o),
(164,488,cs)
);
}
);
width = 710;
}
);
unicode = 124120;
},
{
color = 0;
glyphname = "ah-nagmundari";
lastChange = "2023-02-17 15:16:27 +0000";
layers = (
{
anchors = (
{
name = bottom;
pos = (427,0);
},
{
name = top;
pos = (413,714);
}
);
layerId = m01;
shapes = (
{
closed = 1;
nodes = (
(610,-16,o),
(680,157,o),
(680,337,cs),
(680,530,o),
(600,730,o),
(454,730,cs),
(379,730,o),
(310,677,o),
(310,576,cs),
(310,447,o),
(422,336,o),
(612,336,c),
(612,402,l),
(490,402,o),
(390,464,o),
(390,575,cs),
(390,632,o),
(417,658,o),
(450,658,cs),
(516,658,o),
(600,552,o),
(600,344,cs),
(600,103,o),
(487,56,o),
(406,56,cs),
(328,56,o),
(250,100,o),
(250,208,cs),
(250,246,o),
(259,281,o),
(280,340,c),
(226,387,l),
(24,264,l),
(64,207,l),
(223,306,l),
(205,336,l),
(184,291,o),
(170,259,o),
(170,206,cs),
(170,90,o),
(241,-16,o),
(403,-16,cs)
);
}
);
width = 740;
},
{
anchors = (
{
name = bottom;
pos = (445,0);
},
{
name = top;
pos = (431,714);
}
);
layerId = m002;
shapes = (
{
closed = 1;
nodes = (
(626,-16,o),
(725,157,o),
(725,337,cs),
(725,552,o),
(637,730,o),
(465,730,cs),
(390,730,o),
(301,684,o),
(301,563,cs),
(301,434,o),
(440,307,o),
(630,307,c),
(630,422,l),
(508,422,o),
(435,486,o),
(435,566,cs),
(435,593,o),
(444,628,o),
(478,628,cs),
(531,628,o),
(591,552,o),
(591,344,cs),
(591,166,o),
(505,94,o),
(424,94,cs),
(346,94,o),
(295,138,o),
(295,208,cs),
(295,246,o),
(304,281,o),
(325,340,c),
(244,387,l),
(15,264,l),
(61,175,l),
(247,274,l),
(196,336,l),
(175,291,o),
(161,259,o),
(161,206,cs),
(161,90,o),
(263,-16,o),
(419,-16,cs)
);
}
);
width = 755;
}
);
unicode = 124121;
},
{
color = 0;
glyphname = "i-nagmundari";
lastChange = "2023-02-17 15:16:27 +0000";
layers = (
{
anchors = (
{
name = bottom;
pos = (368,0);
},
{
name = top;
pos = (361,714);
}
);
layerId = m01;
shapes = (
{
closed = 1;
nodes = (
(413,561,l),
(393,542,o),
(340,513,o),
(273,513,cs),
(203,513,o),
(171,544,o),
(171,617,cs),
(171,715,l),
(91,715,l),
(91,617,ls),
(91,498,o),
(169,437,o),
(269,437,cs),
(335,437,o),
(388,464,o),
(418,490,c)
);
},
{
closed = 1;
nodes = (
(312,187,ls),
(288,93,o),
(254,56,o),
(197,56,cs),
(144,56,o),
(122,87,o),
(122,124,cs),
(122,211,o),
(243,275,o),
(383,275,cs),
(512,275,o),
(697,221,o),
(697,129,cs),
(697,92,o),
(668,56,o),
(628,56,cs),
(590,56,o),
(553,89,o),
(553,146,cs),
(553,228,o),
(631,341,o),
(666,391,c),
(598,433,l),
(561,377,o),
(483,258,o),
(483,146,cs),
(483,36,o),
(557,-16,o),
(627,-16,cs),
(706,-16,o),
(767,52,o),
(767,128,cs),
(767,250,o),
(613,347,o),
(398,347,cs),
(188,347,o),
(42,254,o),
(42,127,cs),
(42,50,o),
(95,-16,o),
(194,-16,cs),
(271,-16,o),
(352,24,o),
(386,155,cs),
(531,714,l),
(448,714,l)
);
}
);
width = 803;
},
{
anchors = (
{
name = bottom;
pos = (386,0);
},
{
name = top;
pos = (379,714);
}
);
layerId = m002;
shapes = (
{
closed = 1;
nodes = (
(414,616,l),
(399,588,o),
(340,533,o),
(288,533,cs),
(236,533,o),
(210,559,o),
(210,626,cs),
(210,715,l),
(76,715,l),
(76,647,ls),
(76,455,o),
(181,423,o),
(262,423,cs),
(340,423,o),
(396,471,o),
(419,511,c)
);
},
{
closed = 1;
nodes = (
(307,210,ls),
(282,114,o),
(241,84,o),
(203,84,cs),
(165,84,o),
(150,116,o),
(150,137,cs),
(150,198,o),
(233,257,o),
(406,257,cs),
(547,257,o),
(705,217,o),
(705,137,cs),
(705,100,o),
(678,84,o),
(655,84,cs),
(626,84,o),
(600,106,o),
(600,144,cs),
(600,229,o),
(668,331,o),
(703,381,c),
(608,443,l),
(572,388,o),
(490,259,o),
(490,144,cs),
(490,36,o),
(573,-16,o),
(652,-16,cs),
(762,-16,o),
(815,54,o),
(815,137,cs),
(815,258,o),
(669,367,o),
(406,367,cs),
(186,367,o),
(30,254,o),
(30,130,cs),
(30,41,o),
(96,-16,o),
(202,-16,cs),
(309,-16,o),
(399,37,o),
(440,193,cs),
(578,714,l),
(439,714,l)
);
}
);
width = 860;
}
);
unicode = 124122;
},
{
color = 0;
glyphname = "is-nagmundari";
lastChange = "2023-02-17 15:16:27 +0000";
layers = (
{
anchors = (
{
name = bottom;
pos = (333,0);
},
{
name = top;
pos = (426,714);
}
);
layerId = m01;
shapes = (
{
closed = 1;
nodes = (
(595,0,l),
(675,0,l),
(675,714,l),
(595,714,l)
);
},
{
closed = 1;
nodes = (
(152,614,o),
(214,658,o),
(286,658,cs),
(315,658,o),
(378,652,o),
(461,610,c),
(487,676,l),
(425,711,o),
(346,730,o),
(286,730,cs),
(190,730,o),
(72,680,o),
(72,554,cs),
(72,449,o),
(161,409,o),
(253,387,c),
(253,424,l),
(153,410,o),
(72,358,o),
(72,248,c),
(72,131,o),
(170,64,o),
(308,64,cs),
(483,64,o),
(605,228,o),
(665,348,c),
(598,393,l),
(561,292,o),
(449,136,o),
(302,136,cs),
(201,136,o),
(152,180,o),
(152,249,cs),
(152,324,o),
(210,369,o),
(296,369,cs),
(377,369,l),
(377,441,l),
(320,441,ls),
(201,441,o),
(152,488,o),
(152,551,cs)
);
}
);
width = 801;
},
{
anchors = (
{
name = bottom;
pos = (318,0);
},
{
name = top;
pos = (411,714);
}
);
layerId = m002;
shapes = (
{
closed = 1;
nodes = (
(553,0,l),
(687,0,l),
(687,714,l),
(553,714,l)
);
},
{
closed = 1;
nodes = (
(164,586,o),
(199,620,o),
(271,620,cs),
(300,620,o),
(363,614,o),
(446,572,c),
(486,671,l),
(404,712,o),
(332,730,o),
(268,730,cs),
(160,730,o),
(30,680,o),
(30,554,cs),
(30,449,o),
(119,397,o),
(238,387,c),
(238,424,l),
(124,417,o),
(30,358,o),
(30,247,cs),
(30,126,o),
(142,56,o),
(278,56,cs),
(472,56,o),
(589,199,o),
(657,358,c),
(583,423,l),
(544,321,o),
(440,166,o),
(278,166,cs),
(189,166,o),
(164,213,o),
(164,251,cs),
(164,298,o),
(204,350,o),
(300,350,cs),
(362,350,l),
(362,460,l),
(314,460,ls),
(225,460,o),
(164,492,o),
(164,546,cs)
);
}
);
width = 762;
}
);
metricLeft = "=|o-nagmundari";
metricRight = "op-nagmundari";
unicode = 124123;
},
{
color = 0;
glyphname = "idd-nagmundari";
lastChange = "2023-02-17 15:16:27 +0000";
layers = (
{
anchors = (
{
name = bottom;
pos = (383,0);
},
{
name = top;
pos = (389,714);
}
);
layerId = m01;
shapes = (
{
closed = 1;
nodes = (
(576,-16,o),
(676,169,o),
(676,361,cs),
(676,585,o),
(596,730,o),
(443,730,cs),
(379,730,o),
(306,677,o),
(306,578,cs),
(306,446,o),
(418,336,o),
(608,336,c),
(608,402,l),
(487,402,o),
(386,462,o),
(386,578,cs),
(386,629,o),
(413,658,o),
(444,658,cs),
(495,658,o),
(596,634,o),
(596,362,cs),
(596,115,o),
(458,56,o),
(385,56,cs),
(252,56,o),
(158,179,o),
(158,402,cs),
(158,486,o),
(170,599,o),
(195,714,c),
(112,714,l),
(88,594,o),
(78,483,o),
(78,402,cs),
(78,107,o),
(229,-16,o),
(383,-16,cs)
);
}
);
width = 754;
},
{
anchors = (
{
name = bottom;
pos = (376,0);
},
{
name = top;
pos = (382,714);
}
);
layerId = m002;
shapes = (
{
closed = 1;
nodes = (
(561,-16,o),
(697,119,o),
(697,352,cs),
(697,540,o),
(609,730,o),
(441,730,cs),
(348,730,o),
(273,671,o),
(273,569,cs),
(273,430,o),
(413,307,o),
(602,307,c),
(602,422,l),
(480,422,o),
(407,486,o),
(407,566,cs),
(407,593,o),
(416,628,o),
(450,628,cs),
(510,628,o),
(563,524,o),
(563,368,cs),
(563,148,o),
(458,94,o),
(376,94,cs),
(272,94,o),
(179,179,o),
(179,404,cs),
(179,485,o),
(191,599,o),
(216,714,c),
(79,714,l),
(55,594,o),
(45,481,o),
(45,408,cs),
(45,107,o),
(216,-16,o),
(384,-16,cs)
);
}
);
width = 742;
}
);
unicode = 124124;
},
{
color = 4;
glyphname = "it-nagmundari";
lastChange = "2023-02-18 01:16:45 +0000";
layers = (
{
anchors = (
{
name = bottom;
pos = (385,0);
},
{
name = top;
pos = (385,714);
}
);
layerId = m01;
shapes = (
{
closed = 1;
nodes = (
(520,-16,o),
(657,90,o),
(657,367,cs),
(657,589,o),
(541,730,o),
(385,730,cs),
(237,730,o),
(113,589,o),
(113,367,cs),
(113,90,o),
(252,-16,o),
(384,-16,cs)
);
},
{
closed = 1;
nodes = (
(729,354,l),
(729,411,l),
(40,411,l),
(40,354,l)
);
},
{
closed = 1;
nodes = (
(314,56,o),
(193,107,o),
(193,367,cs),
(193,585,o),
(306,658,o),
(385,658,cs),
(479,658,o),
(577,585,o),
(577,367,cs),
(577,107,o),
(458,56,o),
(384,56,cs)
);
}
);
width = 769;
},
{
anchors = (
{
name = bottom;
pos = (394,0);
},
{
name = top;
pos = (394,714);
}
);
layerId = m002;
shapes = (
{
closed = 1;
nodes = (
(549,-16,o),
(690,90,o),
(690,367,cs),
(690,589,o),
(570,730,o),
(394,730,cs),
(226,730,o),
(98,589,o),
(98,367,cs),
(98,90,o),
(241,-16,o),
(393,-16,cs)
);
},
{
closed = 1;
nodes = (
(762,347,l),
(762,417,l),
(25,417,l),
(25,347,l)
);
},
{
closed = 1;
nodes = (
(323,94,o),
(226,147,o),
(226,367,cs),
(226,555,o),
(315,620,o),
(394,620,cs),
(488,620,o),
(562,555,o),
(562,367,cs),
(562,147,o),
(467,94,o),
(393,94,cs)
);
}
);
width = 787;
}
);
unicode = 124125;
},
{
color = 4;
glyphname = "ih-nagmundari";
lastChange = "2023-02-18 01:17:17 +0000";
layers = (
{
anchors = (
{
name = bottom;
pos = (328,0);
},
{
name = top;
pos = (330,714);
}
);
layerId = m01;
shapes = (
{
closed = 1;
nodes = (
(469,-16,o),
(559,62,o),
(559,179,cs),
(559,275,o),
(500,347,o),
(429,418,cs),
(116,729,l),
(60,672,l),
(361,373,ls),
(436,298,o),
(479,240,o),
(479,179,cs),
(479,123,o),
(430,56,o),
(329,56,cs),
(228,56,o),
(179,123,o),
(179,179,cs),
(179,240,o),
(222,298,o),
(297,373,cs),
(598,672,l),
(542,729,l),
(229,418,ls),
(158,347,o),
(99,275,o),
(99,179,cs),
(99,62,o),
(189,-16,o),
(329,-16,cs)
);
}
);
width = 658;
},
{
anchors = (
{
name = bottom;
pos = (340,0);
},
{
name = top;
pos = (342,714);
}
);
layerId = m002;
shapes = (
{
closed = 1;
nodes = (
(481,-16,o),
(598,59,o),
(598,182,cs),
(598,270,o),
(538,353,o),
(468,418,cs),
(132,730,l),
(35,633,l),
(326,373,ls),
(411,297,o),
(463,227,o),
(463,175,cs),
(463,121,o),
(408,94,o),
(341,94,cs),
(274,94,o),
(219,121,o),
(219,175,cs),
(219,227,o),
(271,297,o),
(356,373,cs),
(647,633,l),
(550,730,l),
(214,418,ls),
(144,353,o),
(84,270,o),
(84,182,cs),
(84,59,o),
(201,-16,o),
(341,-16,cs)
);
}
);
width = 682;
}
);
note = "Straighten the vertical stroke";
unicode = 124126;
},
{
color = 5;
glyphname = "u-nagmundari";
lastChange = "2023-02-18 04:50:27 +0000";
layers = (
{
anchors = (
{
name = bottom;
pos = (344,0);
},
{
name = top;
pos = (347,714);
}
);
guides = (
{
pos = (217,145);
}
);
layerId = m01;
shapes = (
{
closed = 1;
nodes = (
(436,658,o),
(551,585,o),
(551,367,cs),
(551,107,o),
(415,56,o),
(321,56,cs),
(240,56,o),
(166,85,o),
(112,145,c),
(60,91,l),
(117,33,o),
(203,-16,o),
(321,-16,cs),
(477,-16,o),
(631,80,o),
(631,367,cs),
(631,609,o),
(498,730,o),
(342,730,cs),
(282,730,o),
(191,713,o),
(119,675,c),
(147,610,l),
(236,652,o),
(307,658,o),
(342,658,cs)
);
}
);
width = 731;
},
{
anchors = (
{
name = bottom;
pos = (359,0);
},
{
name = top;
pos = (362,714);
}
);
layerId = m002;
shapes = (
{
closed = 1;
nodes = (
(486,-16,o),
(672,80,o),
(672,367,cs),
(672,620,o),
(513,730,o),
(357,730,cs),
(258,730,o),
(144,674,o),
(83,548,c),
(175,492,l),
(237,601,o),
(302,620,o),
(357,620,cs),
(451,620,o),
(538,552,o),
(538,367,cs),
(538,143,o),
(424,94,o),
(340,94,cs),
(256,94,o),
(202,124,o),
(136,185,c),
(63,97,l),
(131,36,o),
(209,-16,o),
(340,-16,cs)
);
}
);
width = 692;
}
);
unicode = 124127;
},
{
color = 5;
glyphname = "uc-nagmundari";
lastChange = "2023-02-18 05:38:47 +0000";
layers = (
{
anchors = (
{
name = bottom;
pos = (380,0);
},
{
name = top;
pos = (363,714);
}
);
layerId = m01;
shapes = (
{
closed = 1;
nodes = (
(644,-16,o),
(714,33,o),
(762,91,c),
(715,145,l),
(659,85,o),
(614,56,o),
(559,56,cs),
(479,56,o),
(439,115,o),
(439,188,cs),
(439,283,o),
(508,367,o),
(615,428,c),
(606,500,l),
(223,500,ls),
(136,500,o),
(120,552,o),
(120,588,cs),
(120,634,o),
(147,658,o),
(178,658,cs),
(210,658,o),
(242,633,o),
(242,577,cs),
(242,563,o),
(240,550,o),
(237,536,cs),
(122,0,l),
(202,0,l),
(317,536,ls),
(321,555,o),
(323,572,o),
(323,588,cs),
(323,695,o),
(237,730,o),
(186,730,cs),
(125,730,o),
(40,687,o),
(40,587,cs),
(40,500,o),
(101,428,o),
(223,428,cs),
(549,428,l),
(545,463,l),
(452,420,o),
(359,302,o),
(359,181,cs),
(359,72,o),
(434,-16,o),
(554,-16,cs)
);
}
);
width = 787;
},
{
anchors = (
{
name = bottom;
pos = (349,0);
},
{
name = top;
pos = (332,714);
}
);
layerId = m002;
shapes = (
{
closed = 1;
nodes = (
(672,-16,o),
(731,28,o),
(798,83,c),
(729,171,l),
(674,124,o),
(632,96,o),
(582,96,cs),
(533,96,o),
(491,125,o),
(491,192,cs),
(491,280,o),
(563,353,o),
(675,395,c),
(664,500,l),
(243,500,ls),
(179,500,o),
(148,523,o),
(148,572,cs),
(148,608,o),
(165,629,o),
(193,629,cs),
(227,629,o),
(233,599,o),
(233,577,cs),
(233,563,o),
(231,550,o),
(228,536,cs),
(113,0,l),
(250,0,l),
(365,536,ls),
(369,555,o),
(371,571,o),
(371,587,cs),
(371,695,o),
(276,730,o),
(204,730,cs),
(115,730,o),
(30,678,o),
(30,574,cs),
(30,467,o),
(119,400,o),
(241,400,cs),
(567,400,l),
(563,463,l),
(446,423,o),
(361,304,o),
(361,186,cs),
(361,78,o),
(432,-16,o),
(575,-16,cs)
);
}
);
width = 842;
}
);
unicode = 124128;
},
{
color = 5;
glyphname = "ud-nagmundari";
lastChange = "2023-02-18 04:50:04 +0000";
layers = (
{
anchors = (
{
name = bottom;
pos = (329,0);
},
{
name = top;
pos = (336,714);
}
);
guides = (
{
angle = 90;
pos = (583,268);
}
);
layerId = m01;
shapes = (
{
closed = 1;
nodes = (
(458,-16,o),
(553,38,o),
(610,91,c),
(563,145,l),
(498,84,o),
(426,56,o),
(352,56,cs),
(246,56,o),
(168,105,o),
(168,177,cs),
(168,257,o),
(262,316,o),
(348,350,cs),
(431,383,o),
(534,426,o),
(534,536,cs),
(534,641,o),
(444,729,o),
(335,729,cs),
(226,729,o),
(134,640,o),
(134,540,cs),
(134,446,o),
(230,389,o),
(304,376,c),
(304,382,l),
(229,359,o),
(88,299,o),
(88,177,cs),
(88,91,o),
(172,-16,o),
(347,-16,cs)
);
},
{
closed = 1;
nodes = (
(583,354,l),
(583,411,l),
(74,411,l),
(74,354,l)
);
},
{
closed = 1;
nodes = (
(273,411,o),
(207,461,o),
(207,537,cs),
(207,613,o),
(270,657,o),
(335,657,cs),
(400,657,o),
(461,612,o),
(461,537,cs),
(461,461,o),
(395,411,o),
(335,411,cs)
);
}
);
width = 689;
},
{
anchors = (
{
name = bottom;
pos = (305,0);
},
{
name = top;
pos = (312,714);
}
);
guides = (
{
angle = 90;
pos = (580,274);
}
);
layerId = m002;
shapes = (
{
closed = 1;
nodes = (
(460,-16,o),
(541,38,o),
(608,93,c),
(539,181,l),
(476,127,o),
(404,94,o),
(324,94,cs),
(225,94,o),
(178,145,o),
(178,184,cs),
(178,240,o),
(235,287,o),
(324,320,cs),
(424,357,o),
(530,399,o),
(530,531,cs),
(530,629,o),
(447,729,o),
(310,729,cs),
(171,729,o),
(90,626,o),
(90,531,cs),
(90,399,o),
(234,364,o),
(302,364,c),
(302,381,l),
(193,362,o),
(44,296,o),
(44,178,cs),
(44,74,o),
(144,-16,o),
(324,-16,cs)
);
},
{
closed = 1;
nodes = (
(580,348,l),
(580,417,l),
(40,417,l),
(40,348,l)
);
},
{
closed = 1;
nodes = (
(258,417,o),
(208,459,o),
(208,525,cs),
(208,585,o),
(258,627,o),
(311,627,cs),
(363,627,o),
(412,585,o),
(412,525,cs),
(412,459,o),
(363,417,o),
(311,417,cs)
);
}
);
width = 667;
}
);
note = "Sould the loop be enlarged?";
unicode = 124129;
},
{
color = 0;
glyphname = "uk-nagmundari";
lastChange = "2023-02-17 15:16:27 +0000";
layers = (
{
anchors = (
{
name = bottom;
pos = (354,0);
},
{
name = top;
pos = (370,714);
}
);
layerId = m01;
shapes = (
{
closed = 1;
nodes = (
(102,0,l),
(386,682,l),
(354,682,l),
(638,0,l),
(722,0,l),
(430,714,l),
(310,714,l),
(18,0,l)
);
},
{
closed = 1;
nodes = (
(673,0,l),
(653,72,l),
(492,72,ls),
(432,72,o),
(391,118,o),
(391,178,cs),
(391,204,o),
(399,244,o),
(430,276,cs),
(637,493,l),
(586,551,l),
(385,333,ls),
(336,280,o),
(311,229,o),
(311,173,cs),
(311,93,o),
(363,0,o),
(495,0,cs)
);
}
);
width = 740;
},
{
anchors = (
{
name = bottom;
pos = (373,0);
},
{
name = top;
pos = (389,714);
}
);
layerId = m002;
shapes = (
{
closed = 1;
nodes = (
(148,0,l),
(432,682,l),
(348,682,l),
(630,0,l),
(768,0,l),
(476,714,l),
(302,714,l),
(10,0,l)
);
},
{
closed = 1;
nodes = (
(692,0,l),
(672,100,l),
(515,100,ls),
(463,100,o),
(427,118,o),
(427,178,cs),
(427,204,o),
(445,244,o),
(476,276,cs),
(683,493,l),
(606,581,l),
(377,333,ls),
(328,280,o),
(303,229,o),
(303,173,cs),
(303,93,o),
(352,0,o),
(496,0,cs)
);
}
);
width = 778;
}
);
unicode = 124130;
},
{
color = 4;
glyphname = "ur-nagmundari";
lastChange = "2023-02-18 01:19:03 +0000";
layers = (
{
anchors = (
{
name = bottom;
pos = (341,0);
},
{
name = top;
pos = (342,714);
}
);
layerId = m01;
shapes = (
{
closed = 1;
nodes = (
(481,-16,o),
(604,63,o),
(604,188,cs),
(604,308,o),
(498,360,o),
(398,374,c),
(398,367,l),
(490,389,o),
(554,445,o),
(554,538,cs),
(554,656,o),
(458,730,o),
(342,730,cs),
(226,730,o),
(130,656,o),
(130,538,cs),
(130,447,o),
(194,389,o),
(286,367,c),
(286,374,l),
(186,360,o),
(80,308,o),
(80,188,cs),
(80,63,o),
(203,-16,o),
(341,-16,cs)
);
},
{
closed = 1;
nodes = (
(240,56,o),
(155,107,o),
(155,189,cs),
(155,282,o),
(242,329,o),
(342,329,cs),
(442,329,o),
(529,282,o),
(529,189,cs),
(529,107,o),
(442,56,o),
(341,56,cs)
);
},
{
closed = 1;
nodes = (
(237,411,o),
(205,478,o),
(205,535,cs),
(205,588,o),
(250,658,o),
(342,658,cs),
(434,658,o),
(479,598,o),
(479,535,cs),
(479,480,o),
(445,411,o),
(346,411,cs)
);
},
{
closed = 1;
nodes = (
(624,357,l),
(624,411,l),
(60,411,l),
(60,357,l)
);
}
);
width = 684;
},
{
anchors = (
{
name = bottom;
pos = (328,0);
},
{
name = top;
pos = (329,714);
}
);
guides = (
{
angle = 90;
pos = (618,680);
}
);
layerId = m002;
shapes = (
{
closed = 1;
nodes = (
(488,-16,o),
(618,62,o),
(618,185,cs),
(618,299,o),
(507,349,o),
(385,364,c),
(385,357,l),
(484,382,o),
(568,426,o),
(568,538,cs),
(568,664,o),
(457,730,o),
(329,730,cs),
(202,730,o),
(90,666,o),
(90,539,cs),
(90,425,o),
(175,382,o),
(273,357,c),
(273,364,l),
(151,349,o),
(40,299,o),
(40,185,cs),
(40,62,o),
(170,-16,o),
(329,-16,cs)
);
},
{
closed = 1;
nodes = (
(227,90,o),
(174,147,o),
(174,193,cs),
(174,252,o),
(232,303,o),
(332,303,cs),
(426,303,o),
(484,258,o),
(484,198,cs),
(484,151,o),
(431,90,o),
(327,90,cs)
);
},
{
closed = 1;
nodes = (
(264,417,o),
(224,465,o),
(224,517,cs),
(224,564,o),
(257,620,o),
(329,620,cs),
(396,620,o),
(434,569,o),
(434,518,cs),
(434,469,o),
(400,417,o),
(331,417,cs)
);
},
{
closed = 1;
nodes = (
(618,348,l),
(618,417,l),
(40,417,l),
(40,348,l)
);
}
);
width = 658;
}
);
unicode = 124131;
},
{
color = 5;
glyphname = "e-nagmundari";
lastChange = "2023-02-18 05:02:48 +0000";
layers = (
{
anchors = (
{
name = bottom;
pos = (283,0);
},
{
name = top;
pos = (301,714);
}
);
layerId = m01;
shapes = (
{
closed = 1;
nodes = (
(436,-16,o),
(537,33,o),
(594,91,c),
(542,145,l),
(488,85,o),
(399,56,o),
(328,56,cs),
(203,56,o),
(140,121,o),
(140,185,cs),
(140,276,o),
(234,329,o),
(320,329,cs),
(402,329,l),
(402,401,l),
(344,401,ls),
(225,401,o),
(156,468,o),
(156,531,cs),
(156,600,o),
(215,658,o),
(314,658,cs),
(343,658,o),
(414,655,o),
(505,610,c),
(533,675,l),
(450,714,o),
(370,730,o),
(310,730,cs),
(173,730,o),
(76,644,o),
(76,534,cs),
(76,429,o),
(185,369,o),
(277,347,c),
(277,384,l),
(177,370,o),
(60,308,o),
(60,188,cs),
(60,71,o),
(178,-16,o),
(328,-16,cs)
);
}
);
width = 634;
},
{
anchors = (
{
name = bottom;
pos = (293,0);
},
{
name = top;
pos = (311,714);
}
);
layerId = m002;
shapes = (
{
closed = 1;
nodes = (
(453,-16,o),
(550,35,o),
(613,87,c),
(540,175,l),
(479,123,o),
(397,94,o),
(329,94,cs),
(241,94,o),
(174,134,o),
(174,201,cs),
(174,267,o),
(235,311,o),
(321,311,cs),
(422,311,l),
(422,420,l),
(354,420,ls),
(256,420,o),
(194,462,o),
(194,525,cs),
(194,587,o),
(253,620,o),
(326,620,cs),
(358,620,o),
(423,614,o),
(506,572,c),
(548,669,l),
(478,708,o),
(387,730,o),
(312,730,cs),
(186,730,o),
(60,668,o),
(60,539,cs),
(60,423,o),
(161,372,o),
(278,347,c),
(278,384,l),
(136,374,o),
(40,298,o),
(40,189,cs),
(40,72,o),
(155,-16,o),
(329,-16,cs)
);
}
);
width = 660;
}
);
metricLeft = "=|o-nagmundari";
metricRight = "=|o-nagmundari";
unicode = 124132;
},
{
color = 4;
glyphname = "enn-nagmundari";
lastChange = "2023-02-18 01:19:24 +0000";
layers = (
{
anchors = (
{
name = bottom;
pos = (474,0);
},
{
name = top;
pos = (407,714);
}
);
layerId = m01;
shapes = (
{
closed = 1;
nodes = (
(770,0,l),
(770,517,ls),
(770,608,o),
(750,730,o),
(592,730,cs),
(436,730,o),
(404,608,o),
(404,517,cs),
(404,300,l),
(484,300,l),
(484,510,ls),
(484,588,o),
(503,658,o),
(592,658,cs),
(681,658,o),
(690,588,o),
(690,510,cs),
(690,0,l)
);
},
{
closed = 1;
nodes = (
(454,0,o),
(484,122,o),
(484,213,cs),
(484,430,l),
(404,430,l),
(404,220,ls),
(404,142,o),
(385,72,o),
(296,72,cs),
(207,72,o),
(188,142,o),
(188,220,cs),
(188,714,l),
(108,714,l),
(108,213,ls),
(108,122,o),
(140,0,o),
(296,0,cs)
);
}
);
width = 878;
},
{
anchors = (
{
name = bottom;
pos = (463,0);
},
{
name = top;
pos = (396,714);
}
);
layerId = m002;
shapes = (
{
closed = 1;
nodes = (
(796,0,l),
(796,507,ls),
(796,607,o),
(750,730,o),
(581,730,cs),
(404,730,o),
(366,607,o),
(366,507,cs),
(366,300,l),
(500,300,l),
(500,530,ls),
(500,573,o),
(526,620,o),
(581,620,cs),
(635,620,o),
(662,579,o),
(662,530,cs),
(662,0,l)
);
},
{
closed = 1;
nodes = (
(462,0,o),
(500,123,o),
(500,223,cs),
(500,430,l),
(366,430,l),
(366,200,ls),
(366,157,o),
(340,110,o),
(285,110,cs),
(231,110,o),
(204,151,o),
(204,200,cs),
(204,714,l),
(70,714,l),
(70,223,ls),
(70,123,o),
(116,0,o),
(285,0,cs)
);
}
);
width = 866;
}
);
unicode = 124133;
},
{
color = 0;
glyphname = "eg-nagmundari";
lastChange = "2023-02-17 15:16:27 +0000";
layers = (
{
anchors = (
{
name = bottom;
pos = (449,0);
},
{
name = top;
pos = (414,714);
}
);
layerId = m01;
shapes = (
{
closed = 1;
nodes = (
(413,-16,o),
(456,75,o),
(464,131,c),
(426,131,l),
(434,70,o),
(476,-16,o),
(574,-16,cs),
(717,-16,o),
(754,168,o),
(754,319,cs),
(754,545,o),
(671,730,o),
(529,730,cs),
(453,730,o),
(384,677,o),
(384,576,cs),
(384,447,o),
(496,336,o),
(686,336,c),
(686,402,l),
(564,402,o),
(464,464,o),
(464,574,cs),
(464,631,o),
(491,658,o),
(523,658,cs),
(573,658,o),
(674,595,o),
(674,319,cs),
(674,117,o),
(620,55,o),
(569,55,cs),
(523,55,o),
(486,104,o),
(486,177,cs),
(486,292,l),
(406,292,l),
(406,186,ls),
(406,92,o),
(354,56,o),
(312,56,cs),
(274,56,o),
(234,85,o),
(234,170,cs),
(234,213,o),
(244,260,o),
(274,340,c),
(220,387,l),
(24,264,l),
(58,207,l),
(217,306,l),
(199,336,l),
(165,272,o),
(154,221,o),
(154,173,cs),
(154,65,o),
(211,-16,o),
(309,-16,cs)
);
}
);
width = 814;
},
{
anchors = (
{
name = bottom;
pos = (481,0);
},
{
name = top;
pos = (446,714);
}
);
layerId = m002;
shapes = (
{
closed = 1;
nodes = (
(455,-16,o),
(490,83,o),
(496,131,c),
(458,131,l),
(468,66,o),
(505,-16,o),
(613,-16,cs),
(749,-16,o),
(823,115,o),
(823,325,cs),
(823,559,o),
(731,730,o),
(568,730,cs),
(463,730,o),
(399,660,o),
(399,572,cs),
(399,430,o),
(565,307,o),
(728,307,c),
(728,422,l),
(606,422,o),
(533,486,o),
(533,566,cs),
(533,593,o),
(541,628,o),
(578,628,cs),
(629,628,o),
(689,559,o),
(689,327,cs),
(689,145,o),
(652,92,o),
(606,92,cs),
(551,92,o),
(545,166,o),
(545,198,cs),
(545,292,l),
(411,292,l),
(411,186,ls),
(411,145,o),
(399,92,o),
(351,92,cs),
(306,92,o),
(293,140,o),
(293,184,cs),
(293,224,o),
(304,281,o),
(325,340,c),
(244,387,l),
(15,254,l),
(61,165,l),
(247,274,l),
(196,336,l),
(175,291,o),
(159,222,o),
(159,171,cs),
(159,61,o),
(233,-16,o),
(337,-16,cs)
);
}
);
width = 853;
}
);
unicode = 124134;
},
{
color = 0;
glyphname = "em-nagmundari";
lastChange = "2023-02-17 15:16:27 +0000";
layers = (
{
anchors = (
{
name = bottom;
pos = (428,0);
},
{
name = top;
pos = (371,714);
}
);
guides = (
{
angle = 90;
pos = (172,795);
}
);
layerId = m01;
shapes = (
{
closed = 1;
nodes = (
(248,483,ls),
(324,403,o),
(363,306,o),
(363,215,cs),
(363,106,o),
(315,56,o),
(262,56,cs),
(195,56,o),
(152,137,o),
(152,242,cs),
(152,441,o),
(335,658,o),
(458,658,cs),
(520,658,o),
(556,601,o),
(556,454,cs),
(556,0,l),
(636,0,l),
(636,472,ls),
(636,665,o),
(555,730,o),
(457,730,cs),
(287,730,o),
(72,488,o),
(72,238,cs),
(72,89,o),
(149,-16,o),
(258,-16,cs),
(347,-16,o),
(443,55,o),
(443,216,cs),
(443,340,o),
(386,454,o),
(305,539,cs),
(132,721,l),
(76,664,l)
);
}
);
width = 744;
},
{
anchors = (
{
name = bottom;
pos = (409,0);
},
{
name = top;
pos = (352,714);
}
);
guides = (
{
angle = 90;
pos = (45,795);
}
);
layerId = m002;
shapes = (
{
closed = 1;
nodes = (
(218,445,ls),
(297,366,o),
(346,274,o),
(346,201,cs),
(346,122,o),
(305,94,o),
(267,94,cs),
(214,94,o),
(179,137,o),
(179,242,cs),
(179,441,o),
(342,614,o),
(432,614,cs),
(506,614,o),
(527,555,o),
(527,444,cs),
(527,0,l),
(661,0,l),
(661,446,ls),
(661,639,o),
(611,730,o),
(458,730,cs),
(264,730,o),
(45,488,o),
(45,238,cs),
(45,89,o),
(127,-16,o),
(261,-16,cs),
(354,-16,o),
(466,44,o),
(466,219,cs),
(466,339,o),
(384,454,o),
(303,539,cs),
(122,730,l),
(30,635,l)
);
}
);
width = 731;
}
);
unicode = 124135;
},
{
color = 4;
glyphname = "en-nagmundari";
lastChange = "2023-02-18 01:32:27 +0000";
layers = (
{
anchors = (
{
name = bottom;
pos = (358,0);
},
{
name = top;
pos = (358,714);
}
);
layerId = m01;
shapes = (
{
closed = 1;
nodes = (
(404,0,l),
(649,694,l),
(589,652,l),
(701,652,l),
(701,714,l),
(571,714,l),
(339,57,l),
(369,57,l),
(137,714,l),
(10,714,l),
(10,652,l),
(119,652,l),
(59,694,l),
(304,0,l)
);
}
);
width = 711;
},
{
anchors = (
{
name = bottom;
pos = (390,0);
},
{
name = top;
pos = (390,714);
}
);
layerId = m002;
shapes = (
{
closed = 1;
nodes = (
(468,0,l),
(713,694,l),
(653,614,l),
(765,614,l),
(765,714,l),
(576,714,l),
(344,58,l),
(428,58,l),
(196,714,l),
(10,714,l),
(10,614,l),
(119,614,l),
(59,694,l),
(304,0,l)
);
}
);
width = 775;
}
);
unicode = 124136;
},
{
color = 0;
glyphname = "ett-nagmundari";
lastChange = "2023-02-17 15:16:27 +0000";
layers = (
{
anchors = (
{
name = bottom;
pos = (370,0);
},
{
name = top;
pos = (363,714);
}
);
layerId = m01;
shapes = (
{
closed = 1;
nodes = (
(464,187,o),
(551,236,o),
(575,326,c),
(551,325,l),
(551,0,l),
(631,0,l),
(631,714,l),
(551,714,l),
(551,469,l),
(542,305,o),
(455,259,o),
(373,259,cs),
(273,259,o),
(220,333,o),
(220,438,cs),
(220,536,o),
(250,614,o),
(280,683,c),
(246,730,l),
(24,607,l),
(64,550,l),
(217,646,l),
(189,647,l),
(163,586,o),
(140,511,o),
(140,428,cs),
(140,333,o),
(197,187,o),
(371,187,cs)
);
}
);
width = 757;
},
{
anchors = (
{
name = bottom;
pos = (402,0);
},
{
name = top;
pos = (395,714);
}
);
layerId = m002;
shapes = (
{
closed = 1;
nodes = (
(503,167,o),
(583,229,o),
(607,327,c),
(556,327,l),
(556,0,l),
(690,0,l),
(690,714,l),
(556,714,l),
(556,466,l),
(549,357,o),
(487,277,o),
(405,277,cs),
(321,277,o),
(279,333,o),
(279,438,cs),
(279,536,o),
(309,614,o),
(339,683,c),
(251,730,l),
(20,597,l),
(74,500,l),
(236,606,l),
(194,647,l),
(168,586,o),
(145,511,o),
(145,428,cs),
(145,294,o),
(229,167,o),
(393,167,cs)
);
}
);
width = 765;
}
);
metricLeft = "op-nagmundari";
metricRight = "op-nagmundari";
unicode = 124137;
},
{
color = 0;
glyphname = "ell-nagmundari";
lastChange = "2023-02-17 15:16:27 +0000";
layers = (
{
anchors = (
{
name = bottom;
pos = (450,0);
},
{
name = top;
pos = (423,714);
}
);
layerId = m01;
shapes = (
{
closed = 1;
nodes = (
(549,626,o),
(461,730,o),
(333,730,cs),
(230,730,o),
(119,652,o),
(54,508,c),
(126,471,l),
(175,589,o),
(268,658,o),
(335,658,cs),
(420,658,o),
(469,564,o),
(469,430,cs),
(469,304,o),
(397,55,o),
(247,55,cs),
(190,55,o),
(162,96,o),
(162,140,cs),
(162,188,o),
(194,231,o),
(246,231,cs),
(365,231,o),
(475,0,o),
(630,0,cs),
(761,0,l),
(761,714,l),
(681,714,l),
(681,72,l),
(630,72,ls),
(516,72,o),
(407,303,o),
(246,303,cs),
(168,303,o),
(83,248,o),
(83,143,cs),
(83,49,o),
(152,-16,o),
(251,-16,cs),
(474,-16,o),
(549,279,o),
(549,432,c)
);
}
);
width = 887;
},
{
anchors = (
{
name = bottom;
pos = (448,0);
},
{
name = top;
pos = (421,714);
}
);
layerId = m002;
shapes = (
{
closed = 1;
nodes = (
(574,626,o),
(475,730,o),
(331,730,cs),
(206,730,o),
(90,652,o),
(25,508,c),
(140,462,l),
(189,580,o),
(256,620,o),
(323,620,cs),
(413,620,o),
(440,515,o),
(440,419,cs),
(440,279,o),
(356,90,o),
(251,90,cs),
(219,90,o),
(179,107,o),
(179,157,cs),
(179,200,o),
(210,219,o),
(236,219,cs),
(355,219,o),
(484,0,o),
(639,0,cs),
(775,0,l),
(775,714,l),
(641,714,l),
(641,137,l),
(631,137,ls),
(517,137,o),
(397,353,o),
(236,353,cs),
(158,353,o),
(45,308,o),
(45,161,cs),
(45,48,o),
(142,-16,o),
(241,-16,cs),
(464,-16,o),
(574,279,o),
(574,432,c)
);
}
);
width = 850;
}
);
metricRight = "op-nagmundari";
unicode = 124138;
},
{
color = 7;
export = 0;
glyphname = "o-nagmundari.001";
lastChange = "2023-02-18 02:01:00 +0000";
layers = (
{
anchors = (
{
name = bottom;
pos = (328,0);
},
{
name = top;
pos = (341,714);
}
);
guides = (
{
pos = (422,838);
},
{
pos = (417,1015);
}
);
layerId = m01;
shapes = (
{
closed = 1;
nodes = (
(234,56,o),
(149,106,o),
(75,221,c),
(12,178,l),
(89,61,o),
(201,-16,o),
(349,-16,cs),
(497,-16,o),
(595,71,o),
(595,188,cs),
(595,298,o),
(484,370,o),
(384,384,c),
(384,347,l),
(476,369,o),
(565,429,o),
(565,534,cs),
(565,644,o),
(469,730,o),
(341,730,cs),
(281,730,o),
(202,711,o),
(140,676,c),
(166,610,l),
(249,652,o),
(308,658,o),
(337,658,cs),
(427,658,o),
(485,600,o),
(485,531,cs),
(485,468,o),
(436,401,o),
(317,401,cs),
(259,401,l),
(259,329,l),
(341,329,ls),
(427,329,o),
(515,266,o),
(515,185,cs),
(515,121,o),
(464,56,o),
(351,56,cs)
);
}
);
width = 667;
},
{
anchors = (
{
name = bottom;
pos = (336,0);
},
{
name = top;
pos = (349,714);
}
);
layerId = m002;
shapes = (
{
closed = 1;
nodes = (
(238,94,o),
(156,164,o),
(98,239,c),
(10,166,l),
(90,58,o),
(195,-16,o),
(343,-16,cs),
(514,-16,o),
(630,71,o),
(630,192,cs),
(630,298,o),
(530,375,o),
(392,384,c),
(392,347,l),
(509,372,o),
(600,422,o),
(600,541,cs),
(600,667,o),
(478,730,o),
(355,730,cs),
(287,730,o),
(202,708,o),
(132,669,c),
(174,572,l),
(257,614,o),
(316,620,o),
(343,620,cs),
(402,620,o),
(466,592,o),
(466,524,cs),
(466,462,o),
(414,420,o),
(316,420,cs),
(268,420,l),
(268,311,l),
(349,311,ls),
(435,311,o),
(496,266,o),
(496,204,cs),
(496,133,o),
(428,94,o),
(341,94,cs)
);
}
);
width = 660;
}
);
metricRight = "=|em-nagmundari";
},
{
color = 7;
export = 0;
glyphname = "op-nagmundari.001";
lastChange = "2023-02-18 02:01:00 +0000";
layers = (
{
anchors = (
{
name = bottom;
pos = (250,0);
},
{
name = top;
pos = (253,714);
}
);
layerId = m01;
shapes = (
{
closed = 1;
nodes = (
(180,204,l),
(180,334,l),
(100,334,l),
(100,279,l),
(454,279,l),
(454,351,l),
(40,351,l),
(40,307,l),
(121,204,l)
);
},
{
closed = 1;
nodes = (
(518,0,l),
(518,714,l),
(438,714,l),
(438,0,l)
);
},
{
closed = 1;
nodes = (
(180,342,l),
(180,714,l),
(100,714,l),
(100,342,l)
);
}
);
width = 613;
},
{
anchors = (
{
name = bottom;
pos = (386,0);
},
{
name = top;
pos = (389,714);
}
);
layerId = m002;
shapes = (
{
closed = 1;
nodes = (
(370,60,l),
(370,254,l),
(236,254,l),
(236,155,l),
(228,155,l),
(156,261,l),
(590,261,l),
(590,371,l),
(30,371,l),
(30,280,l),
(182,60,l)
);
},
{
closed = 1;
nodes = (
(681,0,l),
(681,714,l),
(547,714,l),
(547,0,l)
);
},
{
closed = 1;
nodes = (
(370,207,l),
(370,714,l),
(236,714,l),
(236,207,l)
);
}
);
width = 754;
}
);
},
{
color = 7;
export = 0;
glyphname = "op-nagmundari.002";
lastChange = "2023-02-18 02:01:00 +0000";
layers = (
{
anchors = (
{
name = bottom;
pos = (396,0);
},
{
name = top;
pos = (399,714);
}
);
layerId = m01;
shapes = (
{
closed = 1;
nodes = (
(336,60,l),
(336,254,l),
(256,254,l),
(256,132,l),
(228,132,l),
(142,132,o),
(120,201,o),
(120,264,cs),
(120,311,l),
(600,311,l),
(600,383,l),
(40,383,l),
(40,264,ls),
(40,177,o),
(89,60,o),
(222,60,c)
);
},
{
closed = 1;
nodes = (
(664,0,l),
(664,714,l),
(584,714,l),
(584,0,l)
);
},
{
closed = 1;
nodes = (
(336,207,l),
(336,714,l),
(256,714,l),
(256,207,l)
);
}
);
width = 759;
},
{
anchors = (
{
name = bottom;
pos = (386,0);
},
{
name = top;
pos = (389,714);
}
);
layerId = m002;
shapes = (
{
closed = 1;
nodes = (
(370,60,l),
(370,254,l),
(236,254,l),
(236,155,l),
(228,155,l),
(156,261,l),
(590,261,l),
(590,371,l),
(30,371,l),
(30,280,l),
(182,60,l)
);
},
{
closed = 1;
nodes = (
(681,0,l),
(681,714,l),
(547,714,l),
(547,0,l)
);
},
{
closed = 1;
nodes = (
(370,207,l),
(370,714,l),
(236,714,l),
(236,207,l)
);
}
);
width = 754;
}
);
},
{
color = 7;
export = 0;
glyphname = "op-nagmundari.003";
lastChange = "2023-02-18 02:01:00 +0000";
layers = (
{
anchors = (
{
name = bottom;
pos = (396,0);
},
{
name = top;
pos = (432,714);
}
);
layerId = m01;
shapes = (
{
closed = 1;
nodes = (
(326,60,l),
(326,254,l),
(246,254,l),
(246,132,l),
(228,132,l),
(128,279,l),
(600,279,l),
(600,351,l),
(40,351,l),
(40,280,l),
(192,60,l)
);
},
{
closed = 1;
nodes = (
(664,0,l),
(664,714,l),
(584,714,l),
(584,0,l)
);
},
{
closed = 1;
nodes = (
(326,207,l),
(326,714,l),
(246,714,l),
(246,207,l)
);
}
);
width = 759;
},
{
anchors = (
{
name = bottom;
pos = (386,0);
},
{
name = top;
pos = (389,714);
}
);
layerId = m002;
shapes = (
{
closed = 1;
nodes = (
(370,60,l),
(370,254,l),
(236,254,l),
(236,155,l),
(226,155,l),
(152,267,l),
(590,267,l),
(590,372,l),
(30,372,l),
(30,280,l),
(182,60,l)
);
},
{
closed = 1;
nodes = (
(681,0,l),
(681,714,l),
(547,714,l),
(547,0,l)
);
},
{
closed = 1;
nodes = (
(370,207,l),
(370,714,l),
(236,714,l),
(236,207,l)
);
}
);
width = 754;
}
);
},
{
color = 7;
export = 0;
glyphname = "op-nagmundari.ss01";
lastChange = "2023-02-18 02:01:00 +0000";
layers = (
{
anchors = (
{
name = bottom;
pos = (402,0);
},
{
name = top;
pos = (405,714);
}
);
layerId = m01;
shapes = (
{
closed = 1;
nodes = (
(311,60,o),
(342,143,o),
(342,214,cs),
(342,254,l),
(262,254,l),
(262,215,ls),
(262,143,o),
(218,132,o),
(194,132,cs),
(157,132,o),
(120,165,o),
(120,217,cs),
(120,264,o),
(139,311,o),
(227,311,cs),
(606,311,l),
(606,383,l),
(227,383,ls),
(129,383,o),
(40,336,o),
(40,220,cs),
(40,133,o),
(96,60,o),
(198,60,c)
);
},
{
closed = 1;
nodes = (
(670,0,l),
(670,714,l),
(590,714,l),
(590,0,l)
);
},
{
closed = 1;
nodes = (
(342,237,l),
(342,714,l),
(262,714,l),
(262,237,l)
);
}
);
width = 765;
},
{
anchors = (
{
name = bottom;
pos = (412,0);
},
{
name = top;
pos = (415,714);
}
);
layerId = m002;
shapes = (
{
closed = 1;
nodes = (
(343,50,o),
(396,121,o),
(396,223,cs),
(396,294,l),
(262,294,l),
(262,223,ls),
(262,188,o),
(247,152,o),
(202,152,cs),
(170,152,o),
(140,177,o),
(140,217,cs),
(140,264,o),
(163,292,o),
(267,292,cs),
(626,292,l),
(626,402,l),
(267,402,ls),
(150,402,o),
(30,351,o),
(30,216,cs),
(30,115,o),
(111,50,o),
(213,50,c)
);
},
{
closed = 1;
nodes = (
(396,247,l),
(396,714,l),
(262,714,l),
(262,247,l)
);
},
{
closed = 1;
nodes = (
(707,0,l),
(707,714,l),
(573,714,l),
(573,0,l)
);
}
);
width = 780;
}
);
},
{
color = 7;
export = 0;
glyphname = "oy-nagmundari.001";
lastChange = "2023-02-18 02:01:00 +0000";
layers = (
{
anchors = (
{
name = bottom;
pos = (315,0);
},
{
name = top;
pos = (353,714);
}
);
layerId = m01;
shapes = (
{
closed = 1;
nodes = (
(484,-16,o),
(595,61,o),
(672,178,c),
(608,223,l),
(536,119,o),
(450,56,o),
(333,56,cs),
(205,56,o),
(141,123,o),
(141,181,cs),
(141,248,o),
(224,273,o),
(340,304,cs),
(489,344,o),
(651,391,o),
(651,558,cs),
(651,687,o),
(553,730,o),
(491,730,cs),
(439,730,o),
(369,699,o),
(329,615,c),
(380,615,l),
(335,708,o),
(256,730,o),
(204,730,cs),
(124,730,o),
(54,679,o),
(54,588,cs),
(54,530,o),
(83,471,o),
(112,437,c),
(182,476,l),
(155,512,o),
(134,544,o),
(134,582,cs),
(134,628,o),
(160,658,o),
(209,658,cs),
(261,658,o),
(313,627,o),
(313,536,cs),
(313,496,l),
(393,496,l),
(393,535,ls),
(393,616,o),
(430,658,o),
(487,658,cs),
(547,658,o),
(571,610,o),
(571,559,cs),
(571,443,o),
(450,409,o),
(319,374,cs),
(186,338,o),
(61,301,o),
(61,184,cs),
(61,84,o),
(151,-16,o),
(333,-16,cs)
);
}
);
width = 720;
},
{
anchors = (
{
name = bottom;
pos = (341,0);
},
{
name = top;
pos = (379,714);
}
);
layerId = m002;
shapes = (
{
closed = 1;
nodes = (
(521,-16,o),
(635,50,o),
(716,166,c),
(628,239,l),
(569,156,o),
(483,94,o),
(365,94,cs),
(286,94,o),
(194,122,o),
(194,180,cs),
(194,224,o),
(250,243,o),
(366,274,cs),
(515,314,o),
(704,391,o),
(704,558,cs),
(704,687,o),
(598,730,o),
(525,730,cs),
(448,730,o),
(377,687,o),
(355,615,c),
(406,615,l),
(361,708,o),
(284,730,o),
(220,730,cs),
(140,730,o),
(50,691,o),
(50,578,cs),
(50,520,o),
(80,462,o),
(126,422,c),
(225,488,l),
(195,521,o),
(180,541,o),
(180,566,cs),
(180,612,o),
(216,620,o),
(235,620,cs),
(287,620,o),
(312,591,o),
(312,536,cs),
(312,496,l),
(446,496,l),
(446,539,ls),
(446,576,o),
(459,620,o),
(513,620,cs),
(538,620,o),
(570,604,o),
(570,553,cs),
(570,466,o),
(476,439,o),
(345,404,cs),
(212,368,o),
(60,326,o),
(60,184,cs),
(60,54,o),
(211,-16,o),
(363,-16,cs)
);
}
);
width = 761;
}
);
},
{
color = 7;
export = 0;
glyphname = "ong-nagmundari.001";
lastChange = "2023-02-18 02:01:00 +0000";
layers = (
{
anchors = (
{
name = bottom;
pos = (336,0);
},
{
name = top;
pos = (346,714);
}
);
layerId = m01;
shapes = (
{
closed = 1;
nodes = (
(516,-16,o),
(619,66,o),
(675,178,c),
(613,213,l),
(553,101,o),
(473,56,o),
(379,56,cs),
(254,56,o),
(140,155,o),
(140,351,cs),
(140,578,o),
(292,658,o),
(381,658,cs),
(446,658,o),
(525,615,o),
(525,518,cs),
(525,440,o),
(472,404,o),
(352,404,cs),
(117,404,l),
(117,332,l),
(348,332,ls),
(472,332,o),
(605,374,o),
(605,520,cs),
(605,647,o),
(503,730,o),
(378,730,cs),
(212,730,o),
(60,584,o),
(60,346,cs),
(60,115,o),
(203,-16,o),
(378,-16,cs)
);
}
);
width = 705;
},
{
anchors = (
{
name = bottom;
pos = (348,0);
},
{
name = top;
pos = (358,714);
}
);
layerId = m002;
shapes = (
{
closed = 1;
nodes = (
(529,-16,o),
(633,52,o),
(716,166,c),
(628,239,l),
(562,151,o),
(487,94,o),
(393,94,cs),
(298,94,o),
(179,152,o),
(179,351,cs),
(179,555,o),
(304,620,o),
(394,620,cs),
(461,620,o),
(510,584,o),
(510,523,cs),
(510,433,o),
(406,423,o),
(364,423,cs),
(129,423,l),
(129,313,l),
(376,313,ls),
(528,313,o),
(644,377,o),
(644,515,cs),
(644,652,o),
(528,730,o),
(395,730,cs),
(214,730,o),
(45,584,o),
(45,345,cs),
(45,119,o),
(197,-16,o),
(391,-16,cs)
);
}
);
width = 744;
}
);
},
{
color = 7;
export = 0;
glyphname = "u-nagmundari.001";
lastChange = "2023-02-18 02:01:00 +0000";
layers = (
{
anchors = (
{
name = bottom;
pos = (344,0);
},
{
name = top;
pos = (347,714);
}
);
layerId = m01;
shapes = (
{
closed = 1;
nodes = (
(477,-16,o),
(621,80,o),
(621,367,cs),
(621,609,o),
(498,730,o),
(342,730,cs),
(243,730,o),
(150,677,o),
(89,568,c),
(152,530,l),
(214,639,o),
(287,658,o),
(342,658,cs),
(436,658,o),
(541,585,o),
(541,367,cs),
(541,107,o),
(415,56,o),
(341,56,cs),
(236,56,o),
(163,113,o),
(88,223,c),
(24,178,l),
(94,70,o),
(191,-16,o),
(341,-16,cs)
);
}
);
width = 681;
},
{
anchors = (
{
name = bottom;
pos = (359,0);
},
{
name = top;
pos = (362,714);
}
);
layerId = m002;
shapes = (
{
closed = 1;
nodes = (
(485,-16,o),
(662,80,o),
(662,367,cs),
(662,620,o),
(513,730,o),
(357,730,cs),
(258,730,o),
(144,674,o),
(83,548,c),
(175,492,l),
(237,601,o),
(302,620,o),
(357,620,cs),
(451,620,o),
(528,552,o),
(528,367,cs),
(528,143,o),
(421,94,o),
(347,94,cs),
(236,94,o),
(161,164,o),
(103,239,c),
(15,166,l),
(95,58,o),
(193,-16,o),
(349,-16,cs)
);
}
);
width = 692;
}
);
metricRight = "ah-nagmundari";
},
{
color = 7;
export = 0;
glyphname = "ud-nagmundari.001";
lastChange = "2023-02-18 02:01:00 +0000";
layers = (
{
anchors = (
{
name = bottom;
pos = (329,0);
},
{
name = top;
pos = (336,714);
}
);
layerId = m01;
shapes = (
{
closed = 1;
nodes = (
(235,56,o),
(168,112,o),
(168,184,cs),
(168,273,o),
(262,315,o),
(348,350,cs),
(431,384,o),
(524,426,o),
(524,536,cs),
(524,641,o),
(439,729,o),
(335,729,cs),
(229,729,o),
(144,640,o),
(144,540,cs),
(144,458,o),
(191,406,o),
(248,374,c),
(172,340,o),
(88,282,o),
(88,184,cs),
(88,94,o),
(164,-16,o),
(329,-16,cs),
(473,-16,o),
(583,70,o),
(653,178,c),
(589,223,l),
(514,113,o),
(428,56,o),
(331,56,cs)
);
},
{
closed = 1;
nodes = (
(583,354,l),
(583,411,l),
(54,411,l),
(54,354,l)
);
},
{
closed = 1;
nodes = (
(273,411,o),
(222,461,o),
(222,537,cs),
(222,606,o),
(273,657,o),
(335,657,cs),
(395,657,o),
(446,606,o),
(446,537,cs),
(446,461,o),
(395,411,o),
(335,411,cs)
);
}
);
width = 689;
},
{
anchors = (
{
name = bottom;
pos = (305,0);
},
{
name = top;
pos = (312,714);
}
);
layerId = m002;
shapes = (
{
closed = 1;
nodes = (
(212,94,o),
(178,145,o),
(178,184,cs),
(178,240,o),
(235,287,o),
(324,320,cs),
(424,357,o),
(530,399,o),
(530,531,cs),
(530,629,o),
(447,729,o),
(310,729,cs),
(171,729,o),
(90,626,o),
(90,531,cs),
(90,414,o),
(185,374,o),
(230,366,c),
(144,337,o),
(44,285,o),
(44,178,cs),
(44,74,o),
(139,-16,o),
(309,-16,cs),
(467,-16,o),
(572,61,o),
(652,166,c),
(564,235,l),
(506,160,o),
(411,94,o),
(305,94,cs)
);
},
{
closed = 1;
nodes = (
(569,348,l),
(569,417,l),
(40,417,l),
(40,348,l)
);
},
{
closed = 1;
nodes = (
(258,416,o),
(218,464,o),
(218,527,cs),
(218,582,o),
(258,627,o),
(311,627,cs),
(363,627,o),
(402,582,o),
(402,527,cs),
(402,464,o),
(363,416,o),
(311,416,cs)
);
}
);
width = 667;
}
);
note = "Sould the loop be enlarged?";
},
{
color = 7;
export = 0;
glyphname = "ur-nagmundari.001";
lastChange = "2023-02-18 02:01:00 +0000";
layers = (
{
anchors = (
{
name = bottom;
pos = (367,0);
},
{
name = top;
pos = (368,714);
}
);
layerId = m01;
shapes = (
{
closed = 1;
nodes = (
(507,-16,o),
(610,71,o),
(610,188,cs),
(610,298,o),
(524,360,o),
(424,374,c),
(424,337,l),
(516,359,o),
(600,427,o),
(600,532,cs),
(600,664,o),
(484,730,o),
(368,730,cs),
(252,730,o),
(136,664,o),
(136,532,cs),
(136,427,o),
(220,359,o),
(312,337,c),
(312,374,l),
(212,360,o),
(126,298,o),
(126,188,cs),
(126,71,o),
(229,-16,o),
(367,-16,cs)
);
},
{
closed = 1;
nodes = (
(254,376,l),
(171,376,o),
(124,399,o),
(62,440,c),
(20,371,l),
(75,335,o),
(159,326,o),
(254,326,c)
);
},
{
closed = 1;
nodes = (
(266,56,o),
(206,120,o),
(206,189,cs),
(206,264,o),
(268,319,o),
(368,319,cs),
(468,319,o),
(530,264,o),
(530,189,cs),
(530,120,o),
(468,56,o),
(367,56,cs)
);
},
{
closed = 1;
nodes = (
(263,391,o),
(216,466,o),
(216,529,cs),
(216,592,o),
(276,658,o),
(368,658,cs),
(460,658,o),
(520,592,o),
(520,529,cs),
(520,466,o),
(481,391,o),
(372,391,cs)
);
},
{
closed = 1;
nodes = (
(715,350,l),
(660,386,o),
(576,395,o),
(481,395,c),
(481,345,l),
(564,345,o),
(611,322,o),
(673,281,c)
);
}
);
width = 735;
},
{
anchors = (
{
name = bottom;
pos = (367,0);
},
{
name = top;
pos = (368,714);
}
);
layerId = m002;
shapes = (
{
closed = 1;
nodes = (
(527,-16,o),
(637,72,o),
(637,185,cs),
(637,299,o),
(526,359,o),
(424,374,c),
(424,337,l),
(523,362,o),
(627,426,o),
(627,538,cs),
(627,664,o),
(496,730,o),
(368,730,cs),
(241,730,o),
(109,666,o),
(109,539,cs),
(109,425,o),
(214,362,o),
(312,337,c),
(312,374,l),
(210,359,o),
(99,299,o),
(99,185,cs),
(99,72,o),
(209,-16,o),
(368,-16,cs)
);
},
{
closed = 1;
nodes = (
(254,386,l),
(171,386,o),
(124,409,o),
(62,450,c),
(20,361,l),
(75,325,o),
(159,316,o),
(254,316,c)
);
},
{
closed = 1;
nodes = (
(266,90,o),
(233,147,o),
(233,193,cs),
(233,242,o),
(271,303,o),
(371,303,cs),
(465,303,o),
(503,248,o),
(503,198,cs),
(503,151,o),
(470,90,o),
(366,90,cs)
);
},
{
closed = 1;
nodes = (
(283,407,o),
(243,465,o),
(243,517,cs),
(243,564,o),
(276,620,o),
(368,620,cs),
(455,620,o),
(493,569,o),
(493,518,cs),
(493,469,o),
(459,407,o),
(370,407,cs)
);
},
{
closed = 1;
nodes = (
(715,360,l),
(660,396,o),
(576,405,o),
(481,405,c),
(481,335,l),
(564,335,o),
(611,312,o),
(673,271,c)
);
}
);
width = 600;
}
);
},
{
color = 7;
export = 0;
glyphname = "e-nagmundari.001";
lastChange = "2023-02-18 02:01:00 +0000";
layers = (
{
anchors = (
{
name = bottom;
pos = (308,0);
},
{
name = top;
pos = (326,714);
}
);
layerId = m01;
shapes = (
{
closed = 1;
nodes = (
(445,-16,o),
(556,70,o),
(626,178,c),
(562,223,l),
(487,113,o),
(401,56,o),
(304,56,cs),
(201,56,o),
(152,121,o),
(152,185,cs),
(152,266,o),
(230,329,o),
(316,329,cs),
(397,329,l),
(397,401,l),
(340,401,ls),
(221,401,o),
(172,468,o),
(172,531,cs),
(172,600,o),
(230,658,o),
(320,658,cs),
(349,658,o),
(408,652,o),
(491,610,c),
(517,676,l),
(455,711,o),
(376,730,o),
(316,730,cs),
(188,730,o),
(92,644,o),
(92,534,cs),
(92,429,o),
(181,369,o),
(273,347,c),
(273,384,l),
(173,370,o),
(72,298,o),
(72,188,c),
(72,71,o),
(170,-16,o),
(308,-16,cs)
);
}
);
width = 638;
},
{
anchors = (
{
name = bottom;
pos = (292,0);
},
{
name = top;
pos = (310,714);
}
);
layerId = m002;
shapes = (
{
closed = 1;
nodes = (
(455,-16,o),
(560,58,o),
(640,166,c),
(552,239,l),
(494,164,o),
(412,94,o),
(309,94,cs),
(232,94,o),
(164,133,o),
(164,204,cs),
(164,266,o),
(215,311,o),
(301,311,cs),
(382,311,l),
(382,420,l),
(334,420,ls),
(236,420,o),
(184,462,o),
(184,524,cs),
(184,592,o),
(248,620,o),
(307,620,cs),
(334,620,o),
(393,614,o),
(476,572,c),
(518,669,l),
(448,708,o),
(363,730,o),
(295,730,cs),
(172,730,o),
(50,667,o),
(50,541,cs),
(50,422,o),
(141,372,o),
(258,347,c),
(258,384,l),
(120,375,o),
(30,298,o),
(30,192,cs),
(30,71,o),
(146,-16,o),
(307,-16,cs)
);
}
);
width = 650;
}
);
metricLeft = "=|o-nagmundari";
metricRight = "=|o-nagmundari";
},
{
color = 1;
glyphname = "zero-nagmundari";
lastChange = "2023-02-10 03:02:13 +0000";
layers = (
{
guides = (
{
angle = 90;
pos = (60,932);
},
{
angle = 90;
pos = (140,932);
},
{
pos = (377,641);
},
{
angle = 90;
pos = (578,932);
},
{
pos = (377,56);
}
);
layerId = m01;
shapes = (
{
closed = 1;
nodes = (
(534,-16,o),
(658,132,o),
(658,357,cs),
(658,582,o),
(534,730,o),
(359,730,cs),
(184,730,o),
(60,582,o),
(60,357,cs),
(60,132,o),
(184,-16,o),
(359,-16,cs)
);
},
{
closed = 1;
nodes = (
(228,56,o),
(140,167,o),
(140,357,cs),
(140,547,o),
(228,658,o),
(359,658,cs),
(490,658,o),
(578,547,o),
(578,357,cs),
(578,167,o),
(490,56,o),
(359,56,cs)
);
}
);
width = 718;
},
{
layerId = m002;
shapes = (
{
closed = 1;
nodes = (
(554,-16,o),
(685,132,o),
(685,357,cs),
(685,582,o),
(554,730,o),
(359,730,cs),
(164,730,o),
(33,582,o),
(33,357,cs),
(33,132,o),
(164,-16,o),
(359,-16,cs)
);
},
{
closed = 1;
nodes = (
(238,94,o),
(167,197,o),
(167,357,cs),
(167,517,o),
(238,620,o),
(359,620,cs),
(480,620,o),
(551,517,o),
(551,357,cs),
(551,197,o),
(480,94,o),
(359,94,cs)
);
}
);
width = 718;
}
);
unicode = 124144;
},
{
color = 1;
glyphname = "one-nagmundari";
lastChange = "2023-02-10 03:02:13 +0000";
layers = (
{
layerId = m01;
shapes = (
{
closed = 1;
nodes = (
(150,714,l),
(150,0,l),
(230,0,l),
(230,714,l)
);
}
);
width = 380;
},
{
layerId = m002;
shapes = (
{
closed = 1;
nodes = (
(123,714,l),
(123,0,l),
(257,0,l),
(257,714,l)
);
}
);
width = 600;
}
);
unicode = 124145;
},
{
color = 1;
glyphname = "two-nagmundari";
lastChange = "2023-02-10 03:02:13 +0000";
layers = (
{
layerId = m01;
shapes = (
{
closed = 1;
nodes = (
(100,714,l),
(100,0,l),
(553,0,l),
(553,72,l),
(135,72,l),
(180,27,l),
(180,714,l)
);
}
);
width = 653;
},
{
layerId = m002;
shapes = (
{
closed = 1;
nodes = (
(73,714,l),
(73,0,l),
(583,0,l),
(583,110,l),
(135,110,l),
(207,27,l),
(207,714,l)
);
}
);
width = 600;
}
);
unicode = 124146;
},
{
color = 1;
glyphname = "three-nagmundari";
lastChange = "2023-02-10 03:02:13 +0000";
layers = (
{
layerId = m01;
shapes = (
{
closed = 1;
nodes = (
(551,72,l),
(101,72,l),
(120,35,l),
(551,644,l),
(551,714,l),
(50,714,l),
(50,642,l),
(499,642,l),
(480,679,l),
(50,72,l),
(50,0,l),
(551,0,l)
);
}
);
width = 601;
},
{
layerId = m002;
shapes = (
{
closed = 1;
nodes = (
(571,110,l),
(111,110,l),
(142,35,l),
(571,604,l),
(571,714,l),
(30,714,l),
(30,604,l),
(489,604,l),
(460,679,l),
(30,110,l),
(30,0,l),
(571,0,l)
);
}
);
width = 600;
}
);
unicode = 124147;
},
{
color = 1;
glyphname = "four-nagmundari";
lastChange = "2023-02-10 03:02:13 +0000";
layers = (
{
layerId = m01;
shapes = (
{
closed = 1;
nodes = (
(100,714,l),
(100,0,l),
(180,0,l),
(180,646,l),
(158,646,l),
(345,320,l),
(432,320,l),
(619,625,l),
(600,625,l),
(600,0,l),
(680,0,l),
(680,714,l),
(582,714,l),
(374,376,l),
(404,376,l),
(209,714,l)
);
}
);
width = 780;
},
{
layerId = m002;
shapes = (
{
closed = 1;
nodes = (
(73,714,l),
(73,0,l),
(207,0,l),
(207,586,l),
(158,586,l),
(345,260,l),
(432,260,l),
(619,565,l),
(573,565,l),
(573,0,l),
(707,0,l),
(707,714,l),
(582,714,l),
(374,376,l),
(404,376,l),
(209,714,l)
);
}
);
width = 600;
}
);
unicode = 124148;
},
{
color = 1;
glyphname = "five-nagmundari";
lastChange = "2023-02-10 03:02:13 +0000";
layers = (
{
layerId = m01;
shapes = (
{
closed = 1;
nodes = (
(544,72,l),
(135,72,l),
(135,328,l),
(539,328,l),
(539,714,l),
(50,714,l),
(50,642,l),
(459,642,l),
(459,400,l),
(55,400,l),
(55,0,l),
(544,0,l)
);
}
);
width = 594;
},
{
layerId = m002;
shapes = (
{
closed = 1;
nodes = (
(571,110,l),
(162,110,l),
(162,309,l),
(566,309,l),
(566,714,l),
(23,714,l),
(23,604,l),
(432,604,l),
(432,419,l),
(28,419,l),
(28,0,l),
(571,0,l)
);
}
);
width = 600;
}
);
unicode = 124149;
},
{
color = 1;
glyphname = "six-nagmundari";
lastChange = "2023-02-10 03:02:13 +0000";
layers = (
{
layerId = m01;
shapes = (
{
closed = 1;
nodes = (
(180,0,l),
(180,642,l),
(602,642,l),
(602,714,l),
(100,714,l),
(100,0,l)
);
}
);
width = 622;
},
{
layerId = m002;
shapes = (
{
closed = 1;
nodes = (
(207,0,l),
(207,604,l),
(622,604,l),
(622,714,l),
(73,714,l),
(73,0,l)
);
}
);
width = 600;
}
);
unicode = 124150;
},
{
color = 1;
glyphname = "seven-nagmundari";
lastChange = "2023-02-10 03:02:13 +0000";
layers = (
{
layerId = m01;
shapes = (
{
closed = 1;
nodes = (
(135,0,l),
(135,328,l),
(539,328,l),
(539,714,l),
(459,714,l),
(459,400,l),
(55,400,l),
(55,0,l)
);
}
);
width = 594;
},
{
layerId = m002;
shapes = (
{
closed = 1;
nodes = (
(189,0,l),
(189,309,l),
(539,309,l),
(539,714,l),
(405,714,l),
(405,419,l),
(55,419,l),
(55,0,l)
);
}
);
width = 600;
}
);
unicode = 124151;
},
{
color = 1;
glyphname = "eight-nagmundari";
lastChange = "2023-02-10 03:02:13 +0000";
layers = (
{
layerId = m01;
shapes = (
{
closed = 1;
nodes = (
(534,400,l),
(130,400,l),
(130,714,l),
(50,714,l),
(50,328,l),
(454,328,l),
(454,0,l),
(534,0,l)
);
}
);
width = 584;
},
{
layerId = m002;
shapes = (
{
closed = 1;
nodes = (
(561,419,l),
(157,419,l),
(157,714,l),
(23,714,l),
(23,309,l),
(427,309,l),
(427,0,l),
(561,0,l)
);
}
);
width = 600;
}
);
unicode = 124152;
},
{
color = 1;
glyphname = "nine-nagmundari";
lastChange = "2023-02-10 04:23:59 +0000";
layers = (
{
layerId = m01;
shapes = (
{
closed = 1;
nodes = (
(569,714,l),
(67,714,l),
(67,642,l),
(489,642,l),
(489,0,l),
(569,0,l)
);
}
);
width = 652;
},
{
layerId = m002;
shapes = (
{
closed = 1;
nodes = (
(592,714,l),
(57,714,l),
(57,604,l),
(458,604,l),
(458,0,l),
(592,0,l)
);
}
);
width = 600;
}
);
unicode = 124153;
},
{
color = 1;
glyphname = "nine-nagmundari.alt";
lastChange = "2023-02-10 04:24:05 +0000";
layers = (
{
layerId = m01;
shapes = (
{
closed = 1;
nodes = (
(569,642,l),
(569,714,l),
(67,714,l),
(67,642,l),
(534,642,l),
(508,683,l),
(189,0,l),
(269,0,l)
);
}
);
width = 652;
},
{
layerId = m002;
shapes = (
{
closed = 1;
nodes = (
(589,604,l),
(589,714,l),
(57,714,l),
(57,604,l),
(534,604,l),
(478,683,l),
(149,0,l),
(299,0,l)
);
}
);
width = 600;
}
);
},
{
color = 1;
glyphname = zero;
lastChange = "2023-02-10 02:44:38 +0000";
layers = (
{
layerId = m01;
shapes = (
{
closed = 1;
nodes = (
(478,-16,o),
(556,155,o),
(556,354,cs),
(556,554,o),
(477,730,o),
(304,730,cs),
(132,730,o),
(52,556,o),
(52,354,cs),
(52,155,o),
(130,-16,o),
(304,-16,cs)
);
},
{
closed = 1;
nodes = (
(183,56,o),
(132,190,o),
(132,354,cs),
(132,517,o),
(184,658,o),
(304,658,cs),
(424,658,o),
(476,519,o),
(476,354,cs),
(476,192,o),
(426,56,o),
(304,56,cs)
);
}
);
width = 608;
},
{
layerId = m002;
shapes = (
{
closed = 1;
nodes = (
(505,-16,o),
(587,153,o),
(587,360,cs),
(587,566,o),
(506,730,o),
(324,730,cs),
(141,730,o),
(60,566,o),
(60,360,cs),
(60,156,o),
(140,-16,o),
(322,-16,cs)
);
},
{
closed = 1;
nodes = (
(232,94,o),
(194,233,o),
(194,359,cs),
(194,483,o),
(231,620,o),
(323,620,cs),
(414,620,o),
(453,487,o),
(453,360,cs),
(453,235,o),
(415,94,o),
(323,94,cs)
);
}
);
width = 647;
}
);
note = zero;
unicode = 48;
},
{
color = 1;
glyphname = one;
lastChange = "2023-02-10 02:44:42 +0000";
layers = (
{
layerId = m01;
shapes = (
{
closed = 1;
nodes = (
(379,0,l),
(379,714,l),
(298,714,l),
(276,605,o),
(161,524,o),
(40,524,c),
(40,449,l),
(168,449,o),
(246,485,o),
(315,607,c),
(298,634,l),
(298,0,l)
);
}
);
width = 479;
},
{
layerId = m002;
shapes = (
{
closed = 1;
nodes = (
(549,0,l),
(549,714,l),
(407,714,l),
(407,616,o),
(287,537,o),
(173,537,c),
(173,417,l),
(275,417,o),
(350,441,o),
(419,513,c),
(408,525,l),
(408,0,l)
);
}
);
width = 1128;
}
);
note = one;
unicode = 49;
},
{
color = 1;
glyphname = two;
lastChange = "2023-02-10 02:44:47 +0000";
layers = (
{
layerId = m01;
shapes = (
{
closed = 1;
nodes = (
(522,0,l),
(522,72,l),
(141,72,l),
(141,81,ls),
(141,137,o),
(228,206,o),
(320,265,cs),
(428,334,o),
(530,402,o),
(530,525,cs),
(530,648,o),
(427,730,o),
(299,730,cs),
(168,730,o),
(67,643,o),
(50,533,c),
(122,517,l),
(144,625,o),
(227,658,o),
(299,658,cs),
(390,658,o),
(450,606,o),
(450,530,cs),
(450,442,o),
(369,388,o),
(275,327,cs),
(168,257,o),
(57,184,o),
(57,79,c),
(57,0,l)
);
}
);
width = 570;
},
{
layerId = m002;
shapes = (
{
closed = 1;
nodes = (
(601,0,l),
(601,116,l),
(232,116,l),
(232,123,ls),
(232,159,o),
(288,199,o),
(453,282,cs),
(554,333,o),
(601,411,o),
(601,506,cs),
(601,638,o),
(511,729,o),
(366,729,cs),
(212,729,o),
(125,627,o),
(103,502,c),
(237,470,l),
(253,563,o),
(293,612,o),
(361,612,cs),
(421,612,o),
(461,573,o),
(461,512,cs),
(461,460,o),
(429,390,o),
(331,339,cs),
(176,258,o),
(100,194,o),
(100,94,cs),
(100,0,l)
);
}
);
width = 631;
}
);
note = two;
unicode = 50;
},
{
color = 1;
glyphname = three;
lastChange = "2023-02-10 02:44:53 +0000";
layers = (
{
layerId = m01;
shapes = (
{
closed = 1;
nodes = (
(434,-16,o),
(545,62,o),
(545,195,cs),
(545,301,o),
(475,364,o),
(370,382,c),
(371,370,l),
(453,394,o),
(512,452,o),
(512,541,cs),
(512,659,o),
(410,730,o),
(293,730,cs),
(174,730,o),
(86,656,o),
(63,549,c),
(142,531,l),
(151,608,o),
(205,658,o),
(292,658,cs),
(376,658,o),
(428,612,o),
(428,533,cs),
(428,469,o),
(393,414,o),
(295,414,cs),
(256,414,l),
(256,341,l),
(295,341,ls),
(396,341,o),
(462,279,o),
(462,194,cs),
(462,112,o),
(398,56,o),
(303,56,cs),
(205,56,o),
(146,112,o),
(127,199,c),
(50,180,l),
(77,65,o),
(169,-16,o),
(303,-16,cs)
);
}
);
width = 605;
},
{
layerId = m002;
shapes = (
{
closed = 1;
nodes = (
(451,-16,o),
(563,64,o),
(563,203,cs),
(563,287,o),
(515,355,o),
(414,385,c),
(415,367,l),
(488,392,o),
(531,457,o),
(531,531,cs),
(531,653,o),
(443,730,o),
(312,730,cs),
(167,730,o),
(81,637,o),
(61,513,c),
(198,481,l),
(207,548,o),
(239,613,o),
(313,613,cs),
(367,613,o),
(393,579,o),
(393,526,cs),
(393,470,o),
(364,426,o),
(304,426,cs),
(228,426,l),
(228,320,l),
(304,320,ls),
(377,320,o),
(425,265,o),
(425,202,cs),
(425,138,o),
(380,101,o),
(317,101,cs),
(239,101,o),
(196,156,o),
(180,241,c),
(50,211,l),
(70,70,o),
(172,-16,o),
(318,-16,cs)
);
}
);
width = 623;
}
);
note = three;
unicode = 51;
},
{
color = 1;
glyphname = four;
lastChange = "2023-02-10 02:44:58 +0000";
layers = (
{
layerId = m01;
shapes = (
{
closed = 1;
nodes = (
(457,0,l),
(457,177,l),
(560,177,l),
(560,249,l),
(457,249,l),
(457,718,l),
(370,718,l),
(40,265,l),
(40,177,l),
(377,177,l),
(377,0,l)
);
},
{
closed = 1;
nodes = (
(420,656,l),
(377,685,l),
(377,249,l),
(53,249,l),
(93,213,l)
);
}
);
width = 590;
},
{
layerId = m002;
shapes = (
{
closed = 1;
nodes = (
(488,0,l),
(488,164,l),
(586,164,l),
(586,274,l),
(488,274,l),
(488,718,l),
(355,718,l),
(40,279,l),
(40,164,l),
(347,164,l),
(347,0,l)
);
},
{
closed = 1;
nodes = (
(374,541,l),
(347,550,l),
(347,274,l),
(132,274,l),
(150,236,l)
);
}
);
width = 616;
}
);
note = four;
unicode = 52;
},
{
color = 1;
glyphname = five;
lastChange = "2023-02-10 02:45:22 +0000";
layers = (
{
layerId = m01;
shapes = (
{
closed = 1;
nodes = (
(444,-16,o),
(538,93,o),
(538,229,cs),
(538,370,o),
(438,469,o),
(305,469,cs),
(251,469,o),
(173,453,o),
(123,391,c),
(162,384,l),
(203,701,l),
(124,642,l),
(497,642,l),
(497,714,l),
(123,714,l),
(77,344,l),
(152,328,l),
(182,362,o),
(234,396,o),
(300,396,cs),
(383,396,o),
(455,341,o),
(455,232,cs),
(455,136,o),
(400,56,o),
(284,56,cs),
(213,56,o),
(161,86,o),
(135,165,c),
(60,145,l),
(88,49,o),
(168,-16,o),
(288,-16,cs)
);
}
);
width = 598;
},
{
layerId = m002;
shapes = (
{
closed = 1;
nodes = (
(474,-15,o),
(580,83,o),
(580,235,cs),
(580,373,o),
(477,483,o),
(339,483,cs),
(314,483,o),
(240,474,o),
(202,436,c),
(220,436,l),
(245,653,l),
(195,608,l),
(542,608,l),
(542,714,l),
(123,714,l),
(78,340,l),
(198,312,l),
(226,348,o),
(275,372,o),
(312,372,cs),
(378,372,o),
(441,324,o),
(441,235,cs),
(441,151,o),
(390,91,o),
(317,91,cs),
(256,91,o),
(213,141,o),
(193,211,c),
(60,180,l),
(95,74,o),
(168,-15,o),
(317,-15,cs)
);
}
);
width = 640;
}
);
note = five;
unicode = 53;
},
{
color = 1;
glyphname = six;
lastChange = "2023-02-10 02:45:27 +0000";
layers = (
{
guides = (
{
angle = 90;
pos = (896,610);
},
{
angle = 90;
pos = (-2,610);
}
);
layerId = m01;
shapes = (
{
closed = 1;
nodes = (
(452,-16,o),
(541,84,o),
(541,216,cs),
(541,356,o),
(441,456,o),
(317,456,cs),
(220,456,o),
(132,394,o),
(102,276,c),
(136,265,l),
(136,288,l),
(136,525,o),
(185,658,o),
(320,658,cs),
(406,658,o),
(444,605,o),
(468,546,c),
(534,574,l),
(503,665,o),
(428,730,o),
(318,730,cs),
(133,730,o),
(60,546,o),
(60,341,cs),
(60,134,o),
(134,-16,o),
(309,-16,cs)
);
},
{
closed = 1;
nodes = (
(220,56,o),
(152,126,o),
(152,214,cs),
(152,296,o),
(210,384,o),
(313,384,cs),
(405,384,o),
(461,314,o),
(461,217,cs),
(461,119,o),
(405,56,o),
(315,56,cs)
);
}
);
width = 601;
},
{
layerId = m002;
shapes = (
{
closed = 1;
nodes = (
(473,-16,o),
(573,82,o),
(573,233,cs),
(573,372,o),
(485,472,o),
(357,472,cs),
(298,472,o),
(208,450,o),
(152,325,c),
(192,339,l),
(192,353,l),
(192,548,o),
(268,613,o),
(334,613,cs),
(387,613,o),
(425,572,o),
(440,513,c),
(565,542,l),
(537,649,o),
(467,730,o),
(337,730,cs),
(145,730,o),
(60,554,o),
(60,345,cs),
(60,132,o),
(150,-16,o),
(328,-16,cs)
);
},
{
closed = 1;
nodes = (
(268,92,o),
(218,154,o),
(218,228,cs),
(218,293,o),
(257,363,o),
(327,363,cs),
(394,363,o),
(434,298,o),
(434,227,cs),
(434,153,o),
(390,92,o),
(329,92,cs)
);
}
);
width = 633;
}
);
note = six;
unicode = 54;
},
{
color = 1;
glyphname = seven;
lastChange = "2023-02-10 02:45:31 +0000";
layers = (
{
layerId = m01;
shapes = (
{
closed = 1;
nodes = (
(226,0,l),
(265,269,o),
(362,445,o),
(534,661,c),
(534,714,l),
(30,714,l),
(30,642,l),
(472,642,l),
(450,675,l),
(276,483,o),
(172,257,o),
(135,0,c)
);
}
);
width = 584;
},
{
layerId = m002;
shapes = (
{
closed = 1;
nodes = (
(274,-1,l),
(308,254,o),
(395,425,o),
(555,629,c),
(555,714,l),
(30,714,l),
(30,608,l),
(401,608,l),
(388,618,l),
(240,439,o),
(164,228,o),
(129,-1,c)
);
}
);
width = 605;
}
);
note = seven;
unicode = 55;
},
{
color = 1;
glyphname = eight;
lastChange = "2023-02-10 02:45:36 +0000";
layers = (
{
layerId = m01;
shapes = (
{
closed = 1;
nodes = (
(447,-16,o),
(548,72,o),
(548,201,cs),
(548,292,o),
(497,359,o),
(399,389,c),
(399,375,l),
(478,406,o),
(529,466,o),
(529,544,cs),
(529,648,o),
(438,730,o),
(301,730,cs),
(159,730,o),
(77,643,o),
(77,543,cs),
(77,464,o),
(129,399,o),
(212,375,c),
(212,389,l),
(125,366,o),
(60,293,o),
(60,196,cs),
(60,77,o),
(157,-16,o),
(304,-16,cs)
);
},
{
closed = 1;
nodes = (
(199,56,o),
(140,117,o),
(140,197,cs),
(140,283,o),
(209,345,o),
(303,345,cs),
(398,345,o),
(466,281,o),
(466,196,cs),
(466,117,o),
(408,56,o),
(303,56,cs)
);
},
{
closed = 1;
nodes = (
(221,416,o),
(157,466,o),
(157,540,cs),
(157,613,o),
(220,658,o),
(305,658,cs),
(389,658,o),
(447,614,o),
(447,540,cs),
(447,465,o),
(386,416,o),
(303,416,cs)
);
}
);
width = 608;
},
{
layerId = m002;
shapes = (
{
closed = 1;
nodes = (
(473,-16,o),
(568,82,o),
(568,195,cs),
(568,280,o),
(519,358,o),
(439,389,c),
(439,351,l),
(498,394,o),
(552,458,o),
(552,533,cs),
(552,642,o),
(447,730,o),
(312,730,cs),
(184,730,o),
(76,651,o),
(76,531,cs),
(76,446,o),
(130,385,o),
(205,351,c),
(205,391,l),
(112,356,o),
(60,291,o),
(60,194,cs),
(60,65,o),
(159,-16,o),
(309,-16,cs)
);
},
{
closed = 1;
nodes = (
(249,91,o),
(199,144,o),
(199,206,cs),
(199,272,o),
(250,324,o),
(313,324,cs),
(376,324,o),
(429,274,o),
(429,206,cs),
(429,141,o),
(377,91,o),
(313,91,cs)
);
},
{
closed = 1;
nodes = (
(260,429,o),
(215,475,o),
(215,528,cs),
(215,576,o),
(248,623,o),
(312,623,cs),
(376,623,o),
(413,576,o),
(413,527,cs),
(413,476,o),
(368,429,o),
(313,429,cs)
);
}
);
width = 628;
}
);
note = eight;
unicode = 56;
},
{
color = 1;
glyphname = danda;
lastChange = "2023-02-10 12:05:22 +0000";
layers = (
{
layerId = m01;
shapes = (
{
closed = 1;
nodes = (
(280,0,l),
(280,714,l),
(200,714,l),
(200,0,l)
);
}
);
width = 480;
},
{
layerId = m002;
shapes = (
{
closed = 1;
nodes = (
(334,0,l),
(334,714,l),
(200,714,l),
(200,0,l)
);
}
);
width = 534;
}
);
note = dn_danda;
unicode = 2404;
},
{
category = Punctuation;
color = 1;
glyphname = grave;
lastChange = "2023-02-10 13:59:33 +0000";
layers = (
{
layerId = m01;
shapes = (
{
closed = 1;
nodes = (
(233,491,l),
(170,714,l),
(60,714,l),
(168,491,l)
);
}
);
width = 263;
},
{
layerId = m002;
shapes = (
{
closed = 1;
nodes = (
(277,461,l),
(224,714,l),
(60,714,l),
(178,461,l)
);
}
);
width = 307;
}
);
note = grave;
unicode = 96;
},
{
color = 1;
glyphname = period;
lastChange = "2023-02-10 13:49:20 +0000";
layers = (
{
layerId = m01;
shapes = (
{
closed = 1;
nodes = (
(188,0,l),
(188,92,l),
(98,92,l),
(98,0,l)
);
}
);
width = 286;
},
{
layerId = m002;
shapes = (
{
closed = 1;
nodes = (
(251,0,l),
(251,145,l),
(100,145,l),
(100,0,l)
);
}
);
width = 351;
}
);
note = period;
unicode = 46;
},
{
color = 1;
glyphname = comma;
lastChange = "2023-02-10 13:52:11 +0000";
layers = (
{
layerId = m01;
shapes = (
{
closed = 1;
nodes = (
(119,-97,o),
(150,-44,o),
(150,0,cs),
(150,91,l),
(56,91,l),
(56,-1,l),
(88,-1,l),
(88,-33,o),
(78,-57,o),
(50,-90,c),
(85,-120,l)
);
}
);
width = 210;
},
{
layerId = m002;
shapes = (
{
closed = 1;
nodes = (
(139,-124,o),
(201,-70,o),
(201,9,cs),
(201,145,l),
(50,145,l),
(50,0,l),
(135,0,l),
(128,-46,o),
(105,-77,o),
(58,-102,c),
(83,-148,l)
);
}
);
width = 261;
}
);
note = comma;
unicode = 44;
},
{
color = 1;
glyphname = exclam;
lastChange = "2023-02-10 13:46:26 +0000";
layers = (
{
layerId = m01;
shapes = (
{
closed = 1;
nodes = (
(160,146,l),
(184,371,l),
(184,714,l),
(102,714,l),
(102,368,l),
(126,146,l)
);
},
{
closed = 1;
nodes = (
(184,0,l),
(184,82,l),
(100,82,l),
(100,0,l)
);
}
);
width = 284;
},
{
layerId = m002;
shapes = (
{
closed = 1;
nodes = (
(212,156,l),
(236,371,l),
(236,714,l),
(100,714,l),
(100,368,l),
(124,156,l)
);
},
{
closed = 1;
nodes = (
(226,0,l),
(226,102,l),
(108,102,l),
(108,0,l)
);
}
);
width = 336;
}
);
note = exclam;
unicode = 33;
},
{
color = 1;
glyphname = question;
lastChange = "2023-02-10 13:43:54 +0000";
layers = (
{
layerId = m01;
shapes = (
{
closed = 1;
nodes = (
(357,159,l),
(357,210,ls),
(357,269,o),
(395,306,o),
(438,347,cs),
(486,392,o),
(539,442,o),
(539,532,cs),
(539,645,o),
(455,730,o),
(328,730,cs),
(188,730,o),
(103,631,o),
(100,483,c),
(178,483,l),
(178,589,o),
(232,659,o),
(327,659,cs),
(413,659,o),
(458,602,o),
(458,531,cs),
(458,466,o),
(419,428,o),
(376,388,cs),
(329,345,o),
(281,298,o),
(281,214,cs),
(281,159,l)
);
},
{
closed = 1;
nodes = (
(357,0,l),
(357,81,l),
(281,81,l),
(281,0,l)
);
}
);
width = 639;
},
{
layerId = m002;
shapes = (
{
closed = 1;
nodes = (
(395,169,l),
(395,221,ls),
(395,282,o),
(434,323,o),
(474,365,cs),
(517,411,o),
(561,458,o),
(561,535,cs),
(561,644,o),
(474,730,o),
(343,730,cs),
(196,730,o),
(107,622,o),
(100,463,c),
(228,463,l),
(232,555,o),
(266,622,o),
(340,622,cs),
(395,622,o),
(426,579,o),
(426,525,cs),
(426,467,o),
(390,430,o),
(352,391,cs),
(310,348,o),
(267,302,o),
(267,224,cs),
(267,169,l)
);
},
{
closed = 1;
nodes = (
(395,0,l),
(395,106,l),
(266,106,l),
(266,0,l)
);
}
);
width = 661;
}
);
note = question;
unicode = 63;
},
{
color = 1;
glyphname = bullet;
lastChange = "2023-02-10 13:46:59 +0000";
layers = (
{
layerId = m01;
shapes = (
{
closed = 1;
nodes = (
(271,260,o),
(321,311,o),
(321,372,cs),
(321,434,o),
(271,486,o),
(211,486,cs),
(150,486,o),
(100,434,o),
(100,372,cs),
(100,311,o),
(150,260,o),
(211,260,cs)
);
}
);
width = 421;
},
{
layerId = m002;
shapes = (
{
closed = 1;
nodes = (
(320,235,o),
(383,302,o),
(383,375,cs),
(383,447,o),
(320,514,o),
(241,514,cs),
(161,514,o),
(100,448,o),
(100,375,cs),
(100,302,o),
(161,235,o),
(241,235,cs)
);
}
);
width = 483;
}
);
note = bullet;
unicode = 8226;
},
{
color = 1;
glyphname = asterisk;
lastChange = "2023-02-10 13:40:24 +0000";
layers = (
{
layerId = m01;
shapes = (
{
closed = 1;
nodes = (
(350,598,l),
(441,462,l),
(501,508,l),
(389,627,l),
(553,666,l),
(525,742,l),
(375,678,l),
(387,841,l),
(312,841,l),
(326,677,l),
(173,742,l),
(150,668,l),
(310,627,l),
(197,508,l),
(256,462,l)
);
}
);
width = 703;
},
{
layerId = m002;
shapes = (
{
closed = 1;
nodes = (
(374,546,l),
(447,435,l),
(558,518,l),
(464,615,l),
(602,647,l),
(556,773,l),
(437,722,l),
(447,849,l),
(301,849,l),
(313,721,l),
(189,774,l),
(150,650,l),
(283,616,l),
(190,518,l),
(300,435,l)
);
}
);
width = 752;
}
);
note = asterisk;
unicode = 42;
},
{
color = 1;
glyphname = numbersign;
lastChange = "2023-02-10 13:38:47 +0000";
layers = (
{
layerId = m01;
shapes = (
{
closed = 1;
nodes = (
(380,733,l),
(299,733,l),
(164,-16,l),
(244,-16,l)
);
},
{
closed = 1;
nodes = (
(712,438,l),
(722,510,l),
(107,510,l),
(98,438,l)
);
},
{
closed = 1;
nodes = (
(672,219,l),
(681,291,l),
(67,291,l),
(60,219,l)
);
},
{
closed = 1;
nodes = (
(610,733,l),
(529,733,l),
(392,-16,l),
(473,-16,l)
);
}
);
width = 782;
},
{
layerId = m002;
shapes = (
{
closed = 1;
nodes = (
(407,733,l),
(272,733,l),
(137,-16,l),
(271,-16,l)
);
},
{
closed = 1;
nodes = (
(732,419,l),
(742,529,l),
(107,529,l),
(98,419,l)
);
},
{
closed = 1;
nodes = (
(692,200,l),
(701,310,l),
(67,310,l),
(60,200,l)
);
},
{
closed = 1;
nodes = (
(657,733,l),
(522,733,l),
(385,-16,l),
(520,-16,l)
);
}
);
width = 802;
}
);
note = numbersign;
unicode = 35;
},
{
color = 1;
glyphname = slash;
lastChange = "2023-02-10 12:17:48 +0000";
layers = (
{
layerId = m01;
shapes = (
{
closed = 1;
nodes = (
(145,0,l),
(360,714,l),
(278,714,l),
(60,0,l)
);
}
);
width = 420;
},
{
layerId = m002;
shapes = (
{
closed = 1;
nodes = (
(199,0,l),
(414,714,l),
(278,714,l),
(60,0,l)
);
}
);
width = 474;
}
);
note = slash;
unicode = 47;
},
{
color = 1;
glyphname = hyphen;
lastChange = "2023-02-10 12:14:12 +0000";
layers = (
{
layerId = m01;
shapes = (
{
closed = 1;
nodes = (
(530,319,l),
(530,391,l),
(100,391,l),
(100,319,l)
);
}
);
width = 630;
},
{
layerId = m002;
shapes = (
{
closed = 1;
nodes = (
(531,301,l),
(531,411,l),
(101,411,l),
(101,301,l)
);
}
);
width = 655;
}
);
note = hyphen;
unicode = 45;
},
{
color = 1;
glyphname = endash;
lastChange = "2023-02-10 12:14:12 +0000";
layers = (
{
layerId = m01;
shapes = (
{
closed = 1;
nodes = (
(725,319,l),
(725,391,l),
(100,391,l),
(100,319,l)
);
}
);
width = 825;
},
{
layerId = m002;
shapes = (
{
closed = 1;
nodes = (
(727,301,l),
(727,411,l),
(100,411,l),
(100,301,l)
);
}
);
width = 827;
}
);
note = endash;
unicode = 8211;
},
{
color = 1;
glyphname = emdash;
lastChange = "2023-02-10 12:14:12 +0000";
layers = (
{
layerId = m01;
shapes = (
{
closed = 1;
nodes = (
(844,319,l),
(844,391,l),
(100,391,l),
(100,319,l)
);
}
);
width = 932;
},
{
layerId = m002;
shapes = (
{
closed = 1;
nodes = (
(846,301,l),
(846,411,l),
(100,411,l),
(100,301,l)
);
}
);
width = 946;
}
);
note = emdash;
unicode = 8212;
},
{
color = 1;
glyphname = underscore;
lastChange = "2023-02-10 12:15:50 +0000";
layers = (
{
layerId = m01;
shapes = (
{
closed = 1;
nodes = (
(561,-72,l),
(561,0,l),
(0,0,l),
(0,-72,l)
);
}
);
width = 561;
},
{
layerId = m002;
shapes = (
{
closed = 1;
nodes = (
(558,-110,l),
(558,0,l),
(0,0,l),
(0,-110,l)
);
}
);
width = 558;
}
);
note = underscore;
unicode = 95;
},
{
color = 1;
glyphname = parenleft;
lastChange = "2023-02-10 13:23:43 +0000";
layers = (
{
layerId = m01;
shapes = (
{
closed = 1;
nodes = (
(449,-71,l),
(364,87,o),
(296,235,o),
(296,428,cs),
(296,624,o),
(364,770,o),
(449,929,c),
(379,929,l),
(255,765,o),
(200,608,o),
(200,421,cs),
(200,241,o),
(251,93,o),
(379,-71,c)
);
}
);
width = 499;
},
{
layerId = m002;
shapes = (
{
closed = 1;
nodes = (
(518,-74,l),
(426,95,o),
(367,264,o),
(367,429,cs),
(367,595,o),
(426,763,o),
(518,931,c),
(378,931,l),
(247,757,o),
(200,596,o),
(200,428,cs),
(200,230,o),
(266,52,o),
(378,-74,c)
);
}
);
width = 568;
}
);
note = parenleft;
unicode = 40;
},
{
color = 1;
glyphname = braceleft;
lastChange = "2023-02-10 13:31:17 +0000";
layers = (
{
layerId = m01;
shapes = (
{
closed = 1;
nodes = (
(434,-63,o),
(453,-63,o),
(488,-53,c),
(478,3,l),
(455,-2,o),
(444,-4,o),
(430,-4,cs),
(394,-4,o),
(376,10,o),
(376,81,cs),
(376,319,ls),
(376,391,o),
(311,440,o),
(243,440,c),
(243,418,l),
(318,418,o),
(376,471,o),
(376,541,cs),
(376,779,ls),
(376,850,o),
(394,864,o),
(430,864,cs),
(444,864,o),
(455,862,o),
(478,857,c),
(488,913,l),
(453,923,o),
(434,923,o),
(419,923,cs),
(354,923,o),
(296,881,o),
(296,793,cs),
(296,570,ls),
(296,518,o),
(280,459,o),
(215,459,cs),
(200,459,l),
(200,400,l),
(215,400,ls),
(281,400,o),
(296,340,o),
(296,288,cs),
(296,67,ls),
(296,-21,o),
(354,-63,o),
(419,-63,cs)
);
}
);
width = 538;
},
{
layerId = m002;
shapes = (
{
closed = 1;
nodes = (
(478,-63,o),
(510,-61,o),
(542,-53,c),
(532,43,l),
(509,38,o),
(498,36,o),
(484,36,cs),
(448,36,o),
(430,53,o),
(430,101,cs),
(430,319,ls),
(430,391,o),
(365,440,o),
(297,440,c),
(297,418,l),
(372,418,o),
(430,471,o),
(430,541,cs),
(430,779,ls),
(430,827,o),
(448,844,o),
(484,844,cs),
(498,844,o),
(509,842,o),
(532,837,c),
(542,933,l),
(510,941,o),
(478,943,o),
(463,943,cs),
(398,943,o),
(296,908,o),
(296,790,cs),
(296,580,ls),
(296,528,o),
(280,469,o),
(215,469,cs),
(200,469,l),
(200,390,l),
(215,390,ls),
(281,390,o),
(296,330,o),
(296,278,cs),
(296,90,ls),
(296,-28,o),
(398,-63,o),
(463,-63,cs)
);
}
);
width = 592;
}
);
note = braceleft;
unicode = 123;
},
{
color = 1;
glyphname = bracketleft;
lastChange = "2023-02-10 13:16:45 +0000";
layers = (
{
layerId = m01;
shapes = (
{
closed = 1;
nodes = (
(408,-85,l),
(408,-13,l),
(280,-13,l),
(280,868,l),
(408,868,l),
(408,940,l),
(200,940,l),
(200,-85,l)
);
}
);
width = 458;
},
{
layerId = m002;
shapes = (
{
closed = 1;
nodes = (
(430,-83,l),
(430,16,l),
(332,16,l),
(332,842,l),
(430,842,l),
(430,939,l),
(200,939,l),
(200,-83,l)
);
}
);
width = 480;
}
);
note = bracketleft;
unicode = 91;
},
{
color = 1;
glyphname = quoteleft;
lastChange = "2023-02-10 14:12:20 +0000";
layers = (
{
layerId = m01;
shapes = (
{
closed = 1;
nodes = (
(61,707,o),
(30,654,o),
(30,610,cs),
(30,519,l),
(124,519,l),
(124,611,l),
(92,611,l),
(92,643,o),
(102,666,o),
(130,700,c),
(95,730,l)
);
}
);
width = 160;
},
{
layerId = m002;
shapes = (
{
closed = 1;
nodes = (
(92,706,o),
(30,652,o),
(30,573,cs),
(30,437,l),
(181,437,l),
(181,582,l),
(96,582,l),
(102,628,o),
(125,659,o),
(172,684,c),
(148,730,l)
);
}
);
width = 211;
}
);
note = quoteleft;
unicode = 8216;
},
{
color = 1;
glyphname = quoteright;
lastChange = "2023-02-10 14:12:16 +0000";
layers = (
{
layerId = m01;
shapes = (
{
closed = 1;
nodes = (
(99,526,o),
(130,579,o),
(130,623,cs),
(130,714,l),
(36,714,l),
(36,622,l),
(68,622,l),
(68,590,o),
(58,567,o),
(30,533,c),
(65,503,l)
);
}
);
width = 160;
},
{
layerId = m002;
shapes = (
{
closed = 1;
nodes = (
(119,445,o),
(181,499,o),
(181,578,cs),
(181,714,l),
(30,714,l),
(30,569,l),
(115,569,l),
(109,523,o),
(86,492,o),
(39,467,c),
(63,421,l)
);
}
);
width = 211;
}
);
note = quoteright;
unicode = 8217;
},
{
color = 1;
glyphname = quotesingle;
lastChange = "2023-02-10 14:06:35 +0000";
layers = (
{
layerId = m01;
shapes = (
{
closed = 1;
nodes = (
(112,442,l),
(127,714,l),
(30,714,l),
(43,442,l)
);
}
);
width = 157;
},
{
layerId = m002;
shapes = (
{
closed = 1;
nodes = (
(132,442,l),
(157,714,l),
(30,714,l),
(53,442,l)
);
}
);
width = 187;
}
);
note = quotesingle;
unicode = 39;
},
{
color = 1;
glyphname = at;
lastChange = "2023-02-10 09:49:04 +0000";
layers = (
{
layerId = m01;
shapes = (
{
closed = 1;
nodes = (
(653,-41,o),
(717,-29,o),
(770,-5,c),
(741,66,l),
(700,47,o),
(655,38,o),
(607,38,cs),
(419,38,o),
(291,155,o),
(291,343,cs),
(291,530,o),
(437,671,o),
(622,671,cs),
(766,671,o),
(888,566,o),
(888,423,cs),
(888,322,o),
(834,212,o),
(742,212,cs),
(732,212,o),
(727,217,o),
(727,229,cs),
(727,236,o),
(729,246,o),
(733,259,cs),
(812,536,l),
(738,561,l),
(706,469,l),
(731,492,l),
(719,527,o),
(674,576,o),
(610,576,cs),
(475,576,o),
(376,432,o),
(376,297,cs),
(376,214,o),
(437,133,o),
(531,133,cs),
(589,133,o),
(627,156,o),
(663,211,c),
(639,214,l),
(639,177,o),
(663,133,o),
(717,133,cs),
(863,133,o),
(966,264,o),
(966,428,cs),
(966,611,o),
(806,749,o),
(624,749,cs),
(393,749,o),
(211,576,o),
(211,340,cs),
(211,119,o),
(368,-41,o),
(591,-41,cs)
);
},
{
closed = 1;
nodes = (
(484,210,o),
(460,255,o),
(460,307,cs),
(460,387,o),
(540,498,o),
(611,498,cs),
(657,498,o),
(689,464,o),
(689,414,cs),
(689,399,o),
(682,372,o),
(664,314,cs),
(644,250,o),
(593,210,o),
(538,210,cs)
);
}
);
width = 1587;
},
{
layerId = m002;
shapes = (
{
closed = 1;
nodes = (
(643,-48,o),
(701,-36,o),
(753,-15,c),
(725,77,l),
(689,59,o),
(647,49,o),
(600,49,cs),
(422,49,o),
(295,165,o),
(295,326,cs),
(295,529,o),
(441,655,o),
(614,655,cs),
(746,655,o),
(859,557,o),
(859,423,cs),
(859,327,o),
(805,228,o),
(738,228,cs),
(732,228,o),
(730,233,o),
(730,240,cs),
(730,246,o),
(732,254,o),
(734,262,cs),
(808,525,l),
(718,568,l),
(692,495,l),
(723,516,l),
(701,551,o),
(662,583,o),
(603,583,cs),
(462,583,o),
(362,435,o),
(362,302,cs),
(362,209,o),
(431,131,o),
(525,131,cs),
(579,131,o),
(618,149,o),
(650,190,c),
(618,194,l),
(627,157,o),
(655,131,o),
(699,131,cs),
(856,131,o),
(961,262,o),
(961,428,cs),
(961,613,o),
(800,751,o),
(615,751,cs),
(384,751,o),
(191,585,o),
(191,323,cs),
(191,118,o),
(360,-48,o),
(584,-48,cs)
);
},
{
closed = 1;
nodes = (
(488,226,o),
(470,265,o),
(470,311,cs),
(470,384,o),
(524,485,o),
(604,485,cs),
(641,485,o),
(666,457,o),
(666,414,cs),
(666,401,o),
(658,374,o),
(642,321,cs),
(625,263,o),
(580,226,o),
(532,226,cs)
);
}
);
width = 1587;
}
);
note = at;
unicode = 64;
},
{
color = 1;
glyphname = ampersand;
lastChange = "2023-02-10 12:00:18 +0000";
layers = (
{
layerId = m01;
shapes = (
{
closed = 1;
nodes = (
(372,-16,o),
(454,23,o),
(514,101,cs),
(569,173,o),
(587,248,o),
(593,322,c),
(518,322,l),
(511,262,o),
(499,211,o),
(459,154,cs),
(411,86,o),
(351,64,o),
(277,64,cs),
(197,64,o),
(128,105,o),
(128,181,cs),
(128,246,o),
(198,292,o),
(295,354,cs),
(392,416,o),
(480,491,o),
(480,581,cs),
(480,666,o),
(404,730,o),
(310,730,cs),
(218,730,o),
(141,668,o),
(141,582,cs),
(141,525,o),
(177,448,o),
(238,365,cs),
(310,267,o),
(371,195,o),
(460,104,cs),
(488,75,o),
(544,15,o),
(557,0,c),
(662,0,l),
(600,59,o),
(576,84,o),
(513,153,cs),
(400,278,o),
(353,332,o),
(301,406,cs),
(241,492,o),
(217,545,o),
(217,582,cs),
(217,623,o),
(259,654,o),
(309,654,cs),
(365,654,o),
(404,627,o),
(404,581,cs),
(404,523,o),
(323,465,o),
(251,415,cs),
(130,331,o),
(50,275,o),
(50,183,cs),
(50,61,o),
(145,-16,o),
(278,-16,cs)
);
}
);
width = 702;
},
{
layerId = m002;
shapes = (
{
closed = 1;
nodes = (
(376,-16,o),
(449,6,o),
(521,92,cs),
(581,164,o),
(597,195,o),
(614,345,c),
(483,345,l),
(478,243,o),
(459,216,o),
(431,181,cs),
(401,143,o),
(336,95,o),
(291,95,cs),
(233,95,o),
(182,123,o),
(182,182,cs),
(182,224,o),
(243,280,o),
(321,339,cs),
(438,427,o),
(508,487,o),
(508,570,cs),
(508,663,o),
(424,730,o),
(321,730,cs),
(220,730,o),
(134,666,o),
(134,572,cs),
(134,522,o),
(161,456,o),
(230,356,cs),
(292,267,o),
(366,163,o),
(431,100,cs),
(485,48,o),
(495,38,o),
(533,0,c),
(698,0,l),
(657,42,o),
(544,160,o),
(503,206,cs),
(447,270,o),
(339,415,o),
(333,424,cs),
(286,500,o),
(264,545,o),
(264,572,cs),
(264,602,o),
(290,619,o),
(319,619,cs),
(351,619,o),
(377,603,o),
(377,570,cs),
(377,516,o),
(300,465,o),
(244,429,cs),
(138,361,o),
(50,283,o),
(50,184,cs),
(50,55,o),
(152,-16,o),
(292,-16,cs)
);
}
);
width = 738;
}
);
note = ampersand;
unicode = 38;
},
{
color = 1;
glyphname = copyright;
lastChange = "2023-02-10 10:13:05 +0000";
layers = (
{
layerId = m01;
shapes = (
{
closed = 1;
nodes = (
(791,-16,o),
(957,151,o),
(957,357,cs),
(957,563,o),
(790,730,o),
(586,730,cs),
(382,730,o),
(215,562,o),
(215,357,cs),
(215,152,o),
(381,-16,o),
(586,-16,cs)
);
},
{
closed = 1;
nodes = (
(673,134,o),
(735,182,o),
(767,267,c),
(697,293,l),
(678,236,o),
(644,211,o),
(591,211,cs),
(507,211,o),
(465,260,o),
(465,357,cs),
(465,451,o),
(508,501,o),
(591,501,cs),
(645,501,o),
(678,476,o),
(698,420,c),
(767,446,l),
(735,531,o),
(673,579,o),
(591,579,cs),
(468,579,o),
(390,492,o),
(390,357,cs),
(390,220,o),
(468,134,o),
(591,134,cs)
);
},
{
closed = 1;
nodes = (
(418,61,o),
(289,190,o),
(289,357,cs),
(289,523,o),
(418,654,o),
(586,654,cs),
(752,654,o),
(884,522,o),
(884,357,cs),
(884,192,o),
(752,61,o),
(586,61,cs)
);
}
);
width = 1552;
},
{
layerId = m002;
shapes = (
{
closed = 1;
nodes = (
(794,-16,o),
(965,148,o),
(965,357,cs),
(965,561,o),
(798,727,o),
(586,727,cs),
(379,727,o),
(205,567,o),
(205,357,cs),
(205,150,o),
(376,-16,o),
(586,-16,cs)
);
},
{
closed = 1;
nodes = (
(681,128,o),
(749,192,o),
(785,275,c),
(681,312,l),
(653,263,o),
(625,229,o),
(592,229,cs),
(524,229,o),
(493,281,o),
(493,356,cs),
(493,428,o),
(524,481,o),
(592,481,cs),
(625,481,o),
(653,449,o),
(681,397,c),
(785,435,l),
(749,521,o),
(683,581,o),
(592,581,cs),
(456,581,o),
(373,491,o),
(373,356,cs),
(373,219,o),
(455,128,o),
(592,128,cs)
);
},
{
closed = 1;
nodes = (
(440,85,o),
(323,209,o),
(323,357,cs),
(323,504,o),
(441,628,o),
(586,628,cs),
(729,628,o),
(848,506,o),
(848,357,cs),
(848,209,o),
(731,85,o),
(586,85,cs)
);
}
);
width = 1552;
}
);
note = copyright;
unicode = 169;
},
{
color = 1;
glyphname = bar;
lastChange = "2023-02-10 10:14:19 +0000";
layers = (
{
layerId = m01;
shapes = (
{
closed = 1;
nodes = (
(297,-91,l),
(297,907,l),
(217,907,l),
(217,-91,l)
);
}
);
width = 438;
},
{
layerId = m002;
shapes = (
{
closed = 1;
nodes = (
(336,-91,l),
(336,907,l),
(202,907,l),
(202,-91,l)
);
}
);
width = 438;
}
);
note = bar;
unicode = 124;
},
{
color = 1;
glyphname = dollar;
lastChange = "2023-02-11 11:52:40 +0000";
layers = (
{
layerId = m01;
shapes = (
{
closed = 1;
nodes = (
(431,-6,o),
(561,62,o),
(561,188,cs),
(561,312,o),
(436,360,o),
(316,406,cs),
(222,442,o),
(159,480,o),
(159,545,cs),
(159,609,o),
(221,658,o),
(317,658,cs),
(404,658,o),
(454,617,o),
(477,549,c),
(546,549,l),
(524,669,o),
(424,724,o),
(315,724,cs),
(195,724,o),
(88,658,o),
(88,542,cs),
(88,429,o),
(189,381,o),
(311,331,cs),
(402,294,o),
(490,257,o),
(490,185,cs),
(490,115,o),
(408,60,o),
(307,60,cs),
(219,60,o),
(155,101,o),
(139,169,c),
(70,169,l),
(92,48,o),
(204,-6,o),
(311,-6,cs)
);
},
{
closed = 1;
nodes = (
(352,-104,l),
(352,830,l),
(285,830,l),
(285,-104,l)
);
}
);
width = 631;
},
{
layerId = m002;
shapes = (
{
closed = 1;
nodes = (
(472,-18,o),
(594,51,o),
(594,195,cs),
(594,332,o),
(453,386,o),
(332,429,cs),
(244,460,o),
(203,493,o),
(203,544,cs),
(203,594,o),
(241,630,o),
(330,630,cs),
(411,630,o),
(449,600,o),
(473,526,c),
(583,526,l),
(565,664,o),
(468,736,o),
(326,736,cs),
(194,736,o),
(88,654,o),
(88,540,cs),
(88,410,o),
(206,361,o),
(318,316,cs),
(416,277,o),
(479,240,o),
(479,192,cs),
(479,129,o),
(419,90,o),
(335,90,cs),
(249,90,o),
(205,117,o),
(186,193,c),
(70,193,l),
(87,67,o),
(178,-18,o),
(326,-18,cs)
);
},
{
closed = 1;
nodes = (
(394,-110,l),
(394,838,l),
(283,838,l),
(283,-110,l)
);
}
);
width = 664;
}
);
note = dollar;
unicode = 36;
},
{
color = 1;
glyphname = uni20B9.rupee;
lastChange = "2023-02-10 11:51:36 +0000";
layers = (
{
layerId = m01;
shapes = (
{
closed = 1;
nodes = (
(295,253,o),
(443,326,o),
(443,483,cs),
(443,606,o),
(351,665,o),
(266,692,c),
(266,642,l),
(574,642,l),
(574,714,l),
(67,714,l),
(67,642,l),
(185,642,ls),
(223,642,o),
(368,602,o),
(368,481,cs),
(368,375,o),
(258,316,o),
(99,316,c),
(60,253,l),
(458,-59,l),
(505,-1,l),
(142,281,l),
(142,246,l)
);
},
{
closed = 1;
nodes = (
(574,455,l),
(574,527,l),
(67,527,l),
(67,455,l)
);
}
);
width = 634;
},
{
layerId = m002;
shapes = (
{
closed = 1;
nodes = (
(313,220,o),
(485,297,o),
(485,470,cs),
(485,613,o),
(365,675,o),
(272,698,c),
(272,608,l),
(616,608,l),
(616,714,l),
(73,714,l),
(73,608,l),
(209,608,ls),
(245,608,o),
(374,573,o),
(374,469,cs),
(374,374,o),
(273,325,o),
(113,325,c),
(60,242,l),
(485,-84,l),
(555,0,l),
(148,309,l),
(148,220,l)
);
},
{
closed = 1;
nodes = (
(616,426,l),
(616,531,l),
(73,531,l),
(73,426,l)
);
}
);
width = 676;
}
);
note = uni20B9.rupee;
unicode = 8377;
},
{
color = 1;
glyphname = plus;
lastChange = "2023-02-10 10:17:13 +0000";
layers = (
{
layerId = m01;
shapes = (
{
closed = 1;
nodes = (
(570,323,l),
(570,403,l),
(40,403,l),
(40,323,l)
);
},
{
closed = 1;
nodes = (
(261,104,l),
(341,104,l),
(341,623,l),
(261,623,l)
);
}
);
width = 610;
},
{
layerId = m002;
shapes = (
{
closed = 1;
nodes = (
(602,310,l),
(602,420,l),
(40,420,l),
(40,310,l)
);
},
{
closed = 1;
nodes = (
(255,98,l),
(387,98,l),
(387,630,l),
(255,630,l)
);
}
);
width = 642;
}
);
note = plus;
unicode = 43;
},
{
color = 1;
glyphname = equal;
lastChange = "2023-02-10 12:11:10 +0000";
layers = (
{
layerId = m01;
shapes = (
{
closed = 1;
nodes = (
(580,439,l),
(580,511,l),
(50,511,l),
(50,439,l)
);
},
{
closed = 1;
nodes = (
(580,201,l),
(580,273,l),
(50,273,l),
(50,201,l)
);
}
);
width = 630;
},
{
layerId = m002;
shapes = (
{
closed = 1;
nodes = (
(612,399,l),
(612,529,l),
(50,529,l),
(50,399,l)
);
},
{
closed = 1;
nodes = (
(612,188,l),
(612,318,l),
(50,318,l),
(50,188,l)
);
}
);
width = 662;
}
);
note = equal;
unicode = 61;
},
{
color = 1;
glyphname = greater;
lastChange = "2023-02-10 10:36:08 +0000";
layers = (
{
layerId = m01;
shapes = (
{
closed = 1;
nodes = (
(546,324,l),
(546,404,l),
(50,614,l),
(50,530,l),
(533,330,l),
(533,392,l),
(50,198,l),
(50,113,l)
);
}
);
width = 576;
},
{
layerId = m002;
shapes = (
{
closed = 1;
nodes = (
(578,313,l),
(578,399,l),
(45,631,l),
(45,498,l),
(454,329,l),
(454,377,l),
(45,215,l),
(45,82,l)
);
}
);
width = 603;
}
);
note = greater;
unicode = 62;
},
{
color = 1;
glyphname = asciitilde;
lastChange = "2023-02-10 10:35:57 +0000";
layers = (
{
layerId = m01;
shapes = (
{
closed = 1;
nodes = (
(578,244,o),
(634,338,o),
(637,458,c),
(582,458,l),
(571,375,o),
(525,320,o),
(476,320,cs),
(450,320,o),
(424,335,o),
(401,369,cs),
(362,427,o),
(316,480,o),
(219,480,cs),
(111,480,o),
(54,380,o),
(50,261,c),
(105,261,l),
(117,353,o),
(165,404,o),
(220,404,cs),
(260,404,o),
(303,378,o),
(339,322,cs),
(362,286,o),
(400,244,o),
(473,244,cs)
);
}
);
width = 687;
},
{
layerId = m002;
shapes = (
{
closed = 1;
nodes = (
(589,224,o),
(647,339,o),
(647,478,c),
(574,478,l),
(568,394,o),
(527,340,o),
(476,340,cs),
(436,340,o),
(411,371,o),
(383,406,cs),
(347,450,o),
(306,500,o),
(219,500,cs),
(100,500,o),
(40,378,o),
(40,241,c),
(113,241,l),
(120,335,o),
(163,384,o),
(220,384,cs),
(270,384,o),
(299,349,o),
(328,312,cs),
(361,270,o),
(399,224,o),
(473,224,cs)
);
}
);
width = 716;
}
);
note = asciitilde;
unicode = 126;
},
{
color = 1;
glyphname = asciicircum;
lastChange = "2023-02-10 10:49:54 +0000";
layers = (
{
layerId = m01;
shapes = (
{
closed = 1;
nodes = (
(107,455,l),
(242,704,l),
(188,704,l),
(324,455,l),
(401,455,l),
(254,714,l),
(176,714,l),
(30,455,l)
);
}
);
width = 431;
},
{
layerId = m002;
shapes = (
{
closed = 1;
nodes = (
(147,455,l),
(282,704,l),
(208,704,l),
(344,455,l),
(461,455,l),
(314,714,l),
(176,714,l),
(30,455,l)
);
}
);
width = 491;
}
);
note = asciicircum;
unicode = 94;
},
{
color = 1;
glyphname = percent;
lastChange = "2023-02-10 10:58:47 +0000";
layers = (
{
layerId = m01;
shapes = (
{
closed = 1;
nodes = (
(292,94,l),
(736,816,l),
(652,816,l),
(208,94,l)
);
},
{
closed = 1;
nodes = (
(352,467,o),
(430,548,o),
(430,647,cs),
(430,746,o),
(351,826,o),
(255,826,cs),
(157,826,o),
(80,748,o),
(80,647,cs),
(80,547,o),
(156,467,o),
(255,467,cs)
);
},
{
closed = 1;
nodes = (
(196,536,o),
(151,586,o),
(151,647,cs),
(151,708,o),
(196,758,o),
(255,758,cs),
(314,758,o),
(360,708,o),
(360,647,cs),
(360,586,o),
(314,536,o),
(255,536,cs)
);
},
{
closed = 1;
nodes = (
(794,85,o),
(871,164,o),
(871,264,cs),
(871,363,o),
(796,444,o),
(697,444,cs),
(598,444,o),
(523,363,o),
(523,264,cs),
(523,165,o),
(599,85,o),
(697,85,cs)
);
},
{
closed = 1;
nodes = (
(638,153,o),
(593,203,o),
(593,264,cs),
(593,323,o),
(638,376,o),
(697,376,cs),
(756,376,o),
(802,323,o),
(802,264,cs),
(802,203,o),
(755,153,o),
(697,153,cs)
);
}
);
width = 951;
},
{
layerId = m002;
shapes = (
{
closed = 1;
nodes = (
(316,89,l),
(766,822,l),
(644,822,l),
(193,89,l)
);
},
{
closed = 1;
nodes = (
(372,451,o),
(457,538,o),
(457,641,cs),
(457,746,o),
(372,831,o),
(268,831,cs),
(164,831,o),
(80,746,o),
(80,641,cs),
(80,537,o),
(164,451,o),
(268,451,cs)
);
},
{
closed = 1;
nodes = (
(220,549,o),
(185,590,o),
(185,641,cs),
(185,692,o),
(220,734,o),
(268,734,cs),
(315,734,o),
(352,692,o),
(352,641,cs),
(352,590,o),
(316,549,o),
(268,549,cs)
);
},
{
closed = 1;
nodes = (
(801,80,o),
(885,165,o),
(885,269,cs),
(885,371,o),
(805,461,o),
(697,461,cs),
(593,461,o),
(510,374,o),
(510,269,cs),
(510,163,o),
(596,80,o),
(697,80,cs)
);
},
{
closed = 1;
nodes = (
(650,178,o),
(615,218,o),
(615,269,cs),
(615,321,o),
(650,363,o),
(697,363,cs),
(745,363,o),
(782,321,o),
(782,269,cs),
(782,218,o),
(746,178,o),
(697,178,cs)
);
}
);
width = 965;
}
);
note = percent;
unicode = 37;
},
{
color = 1;
glyphname = uni2219;
lastChange = "2023-02-10 10:51:16 +0000";
layers = (
{
layerId = m01;
shapes = (
{
closed = 1;
nodes = (
(184,355,l),
(184,465,l),
(80,465,l),
(80,355,l)
);
}
);
width = 264;
},
{
layerId = m002;
shapes = (
{
closed = 1;
nodes = (
(256,320,l),
(256,496,l),
(80,496,l),
(80,320,l)
);
}
);
width = 336;
}
);
note = uni2219;
unicode = 8729;
},
{
color = 1;
glyphname = uni25CC;
lastChange = "2023-02-10 10:51:39 +0000";
layers = (
{
anchors = (
{
name = bottom;
pos = (349,56);
},
{
name = top;
pos = (355,638);
}
);
layerId = m01;
shapes = (
{
closed = 1;
nodes = (
(553,491,o),
(571,507,o),
(571,531,cs),
(571,549,o),
(553,569,o),
(534,569,cs),
(512,569,o),
(496,549,o),
(496,531,cs),
(496,507,o),
(512,491,o),
(534,491,cs)
);
},
{
closed = 1;
nodes = (
(171,178,o),
(188,194,o),
(188,216,cs),
(188,239,o),
(171,253,o),
(150,253,cs),
(129,253,o),
(113,239,o),
(113,216,cs),
(113,194,o),
(129,178,o),
(150,178,cs)
);
},
{
closed = 1;
nodes = (
(272,103,o),
(288,117,o),
(288,141,cs),
(288,163,o),
(272,177,o),
(253,177,cs),
(230,177,o),
(213,163,o),
(213,141,cs),
(213,117,o),
(230,103,o),
(253,103,cs)
);
},
{
closed = 1;
nodes = (
(120,295,o),
(137,311,o),
(137,332,cs),
(137,356,o),
(120,369,o),
(98,369,cs),
(76,369,o),
(60,356,o),
(60,332,cs),
(60,311,o),
(76,295,o),
(98,295,cs)
);
},
{
closed = 1;
nodes = (
(402,86,o),
(417,102,o),
(417,125,cs),
(417,146,o),
(402,163,o),
(379,163,cs),
(357,163,o),
(342,146,o),
(342,125,cs),
(342,102,o),
(357,86,o),
(379,86,cs)
);
},
{
closed = 1;
nodes = (
(133,421,o),
(150,436,o),
(150,459,cs),
(150,483,o),
(133,497,o),
(113,497,cs),
(90,497,o),
(76,483,o),
(76,459,cs),
(76,436,o),
(90,421,o),
(113,421,cs)
);
},
{
closed = 1;
nodes = (
(523,141,o),
(537,156,o),
(537,177,cs),
(537,200,o),
(523,216,o),
(499,216,cs),
(478,216,o),
(463,200,o),
(463,177,cs),
(463,156,o),
(478,141,o),
(499,141,cs)
);
},
{
closed = 1;
nodes = (
(214,532,o),
(230,546,o),
(230,570,cs),
(230,590,o),
(214,609,o),
(193,609,cs),
(170,609,o),
(154,590,o),
(154,570,cs),
(154,546,o),
(170,532,o),
(193,532,cs)
);
},
{
closed = 1;
nodes = (
(594,238,o),
(610,255,o),
(610,276,cs),
(610,299,o),
(594,313,o),
(572,313,cs),
(552,313,o),
(535,299,o),
(535,276,cs),
(535,255,o),
(552,238,o),
(572,238,cs)
);
},
{
closed = 1;
nodes = (
(334,573,o),
(349,590,o),
(349,612,cs),
(349,633,o),
(334,649,o),
(313,649,cs),
(289,649,o),
(275,633,o),
(275,612,cs),
(275,590,o),
(289,573,o),
(313,573,cs)
);
},
{
closed = 1;
nodes = (
(606,373,o),
(621,387,o),
(621,410,cs),
(621,434,o),
(606,448,o),
(583,448,cs),
(562,448,o),
(546,434,o),
(546,410,cs),
(546,387,o),
(562,373,o),
(583,373,cs)
);
},
{
closed = 1;
nodes = (
(461,560,o),
(475,576,o),
(475,597,cs),
(475,618,o),
(461,635,o),
(440,635,cs),
(416,635,o),
(400,618,o),
(400,597,cs),
(400,576,o),
(416,560,o),
(440,560,cs)
);
}
);
width = 681;
},
{
anchors = (
{
name = bottom;
pos = (349,56);
},
{
name = top;
pos = (355,638);
}
);
layerId = m002;
shapes = (
{
closed = 1;
nodes = (
(553,491,o),
(571,507,o),
(571,531,cs),
(571,549,o),
(553,569,o),
(534,569,cs),
(512,569,o),
(496,549,o),
(496,531,cs),
(496,507,o),
(512,491,o),
(534,491,cs)
);
},
{
closed = 1;
nodes = (
(171,178,o),
(188,194,o),
(188,216,cs),
(188,239,o),
(171,253,o),
(150,253,cs),
(129,253,o),
(113,239,o),
(113,216,cs),
(113,194,o),
(129,178,o),
(150,178,cs)
);
},
{
closed = 1;
nodes = (
(272,103,o),
(288,117,o),
(288,141,cs),
(288,163,o),
(272,177,o),
(253,177,cs),
(230,177,o),
(213,163,o),
(213,141,cs),
(213,117,o),
(230,103,o),
(253,103,cs)
);
},
{
closed = 1;
nodes = (
(120,295,o),
(137,311,o),
(137,332,cs),
(137,356,o),
(120,369,o),
(98,369,cs),
(76,369,o),
(60,356,o),
(60,332,cs),
(60,311,o),
(76,295,o),
(98,295,cs)
);
},
{
closed = 1;
nodes = (
(402,86,o),
(417,102,o),
(417,125,cs),
(417,146,o),
(402,163,o),
(379,163,cs),
(357,163,o),
(342,146,o),
(342,125,cs),
(342,102,o),
(357,86,o),
(379,86,cs)
);
},
{
closed = 1;
nodes = (
(133,421,o),
(150,436,o),
(150,459,cs),
(150,483,o),
(133,497,o),
(113,497,cs),
(90,497,o),
(76,483,o),
(76,459,cs),
(76,436,o),
(90,421,o),
(113,421,cs)
);
},
{
closed = 1;
nodes = (
(523,141,o),
(537,156,o),
(537,177,cs),
(537,200,o),
(523,216,o),
(499,216,cs),
(478,216,o),
(463,200,o),
(463,177,cs),
(463,156,o),
(478,141,o),
(499,141,cs)
);
},
{
closed = 1;
nodes = (
(214,532,o),
(230,546,o),
(230,570,cs),
(230,590,o),
(214,609,o),
(193,609,cs),
(170,609,o),
(154,590,o),
(154,570,cs),
(154,546,o),
(170,532,o),
(193,532,cs)
);
},
{
closed = 1;
nodes = (
(594,238,o),
(610,255,o),
(610,276,cs),
(610,299,o),
(594,313,o),
(572,313,cs),
(552,313,o),
(535,299,o),
(535,276,cs),
(535,255,o),
(552,238,o),
(572,238,cs)
);
},
{
closed = 1;
nodes = (
(334,573,o),
(349,590,o),
(349,612,cs),
(349,633,o),
(334,649,o),
(313,649,cs),
(289,649,o),
(275,633,o),
(275,612,cs),
(275,590,o),
(289,573,o),
(313,573,cs)
);
},
{
closed = 1;
nodes = (
(606,373,o),
(621,387,o),
(621,410,cs),
(621,434,o),
(606,448,o),
(583,448,cs),
(562,448,o),
(546,434,o),
(546,410,cs),
(546,387,o),
(562,373,o),
(583,373,cs)
);
},
{
closed = 1;
nodes = (
(461,560,o),
(475,576,o),
(475,597,cs),
(475,618,o),
(461,635,o),
(440,635,cs),
(416,635,o),
(400,618,o),
(400,597,cs),
(400,576,o),
(416,560,o),
(440,560,cs)
);
}
);
width = 681;
}
);
note = uni25CC;
unicode = 9676;
},
{
color = 1;
glyphname = "muhor-nagmundari";
lastChange = "2023-02-10 04:14:22 +0000";
layers = (
{
layerId = m01;
shapes = (
{
closed = 1;
nodes = (
(-29,803,o),
(0,832,o),
(0,869,cs),
(0,905,o),
(-29,934,o),
(-65,934,cs),
(-102,934,o),
(-131,905,o),
(-131,869,cs),
(-131,832,o),
(-102,803,o),
(-65,803,cs)
);
}
);
width = 0;
},
{
layerId = m002;
shapes = (
{
closed = 1;
nodes = (
(-42,803,o),
(0,845,o),
(0,898,cs),
(0,949,o),
(-42,991,o),
(-93,991,cs),
(-146,991,o),
(-188,949,o),
(-188,898,cs),
(-188,845,o),
(-146,803,o),
(-93,803,cs)
);
}
);
width = 0;
}
);
unicode = 124140;
},
{
color = 1;
glyphname = "toyor-nagmundari";
lastChange = "2023-02-10 04:15:56 +0000";
layers = (
{
layerId = m01;
shapes = (
{
closed = 1;
nodes = (
(0,972,l),
(-42,1014,l),
(-204,852,l),
(-162,810,l)
);
}
);
width = 0;
},
{
layerId = m002;
shapes = (
{
closed = 1;
nodes = (
(0,999,l),
(-82,1073,l),
(-291,864,l),
(-209,790,l)
);
}
);
width = 0;
}
);
unicode = 124141;
},
